<svg xmlns="http://www.w3.org/2000/svg" xmlns:xlink="http://www.w3.org/1999/xlink" width="440" zoomAndPan="magnify" viewBox="0 0 330 42" height="56" preserveAspectRatio="xMidYMid meet" version="1.2"><defs/><g id="62a7df42dd"><g style="fill:#ff00ff;fill-opacity:1;"><g transform="translate(42.134218, 23.873542)"><path style="stroke:none" d="M 13.5625 -21.0625 C 13.78125 -20.976562 13.847656 -20.828125 13.765625 -20.609375 C 13.679688 -20.398438 13.53125 -20.335938 13.3125 -20.421875 C 12.25 -20.804688 11.148438 -21.070312 10.015625 -21.21875 C 8.878906 -21.375 7.796875 -21.328125 6.765625 -21.078125 C 5.734375 -20.828125 4.8125 -20.269531 4 -19.40625 C 3.363281 -18.71875 2.910156 -17.875 2.640625 -16.875 C 2.367188 -15.882812 2.34375 -14.878906 2.5625 -13.859375 C 2.78125 -12.847656 3.320312 -11.953125 4.1875 -11.171875 C 4.925781 -10.535156 5.679688 -10.050781 6.453125 -9.71875 C 7.234375 -9.382812 7.957031 -9.09375 8.625 -8.84375 C 9.300781 -8.59375 9.851562 -8.289062 10.28125 -7.9375 C 10.71875 -7.582031 10.957031 -7.054688 11 -6.359375 C 11.039062 -5.648438 10.789062 -5.066406 10.25 -4.609375 C 9.71875 -4.148438 9.101562 -3.898438 8.40625 -3.859375 C 7.457031 -3.796875 6.414062 -3.898438 5.28125 -4.171875 C 4.144531 -4.441406 3.097656 -4.929688 2.140625 -5.640625 C 1.941406 -5.773438 1.910156 -5.929688 2.046875 -6.109375 C 2.191406 -6.296875 2.351562 -6.328125 2.53125 -6.203125 C 3.007812 -5.878906 3.578125 -5.578125 4.234375 -5.296875 C 4.898438 -5.015625 5.585938 -4.800781 6.296875 -4.65625 C 7.015625 -4.519531 7.6875 -4.484375 8.3125 -4.546875 C 8.9375 -4.609375 9.441406 -4.8125 9.828125 -5.15625 C 10.179688 -5.488281 10.335938 -5.882812 10.296875 -6.34375 C 10.265625 -6.8125 10.078125 -7.207031 9.734375 -7.53125 C 9.453125 -7.769531 9 -8.003906 8.375 -8.234375 C 7.75 -8.460938 7.0625 -8.742188 6.3125 -9.078125 C 5.5625 -9.410156 4.832031 -9.832031 4.125 -10.34375 C 3.425781 -10.851562 2.847656 -11.488281 2.390625 -12.25 C 1.941406 -13.019531 1.71875 -13.96875 1.71875 -15.09375 C 1.71875 -16.65625 2.085938 -17.984375 2.828125 -19.078125 C 3.578125 -20.171875 4.59375 -20.96875 5.875 -21.46875 C 7.15625 -21.976562 8.601562 -22.125 10.21875 -21.90625 C 10.632812 -21.84375 11.117188 -21.742188 11.671875 -21.609375 C 12.222656 -21.484375 12.851562 -21.300781 13.5625 -21.0625 Z M 1.59375 -1.109375 C 1.394531 -1.210938 1.351562 -1.363281 1.46875 -1.5625 C 1.59375 -1.769531 1.753906 -1.820312 1.953125 -1.71875 C 2.816406 -1.269531 3.75 -0.90625 4.75 -0.625 C 5.757812 -0.34375 6.765625 -0.191406 7.765625 -0.171875 C 8.773438 -0.160156 9.726562 -0.300781 10.625 -0.59375 C 11.53125 -0.882812 12.316406 -1.359375 12.984375 -2.015625 C 13.671875 -2.722656 14.15625 -3.5625 14.4375 -4.53125 C 14.726562 -5.507812 14.765625 -6.503906 14.546875 -7.515625 C 14.328125 -8.523438 13.785156 -9.425781 12.921875 -10.21875 C 12.179688 -10.914062 11.414062 -11.441406 10.625 -11.796875 C 9.84375 -12.148438 9.113281 -12.453125 8.4375 -12.703125 C 7.769531 -12.953125 7.210938 -13.25 6.765625 -13.59375 C 6.328125 -13.945312 6.09375 -14.46875 6.0625 -15.15625 C 6.039062 -15.851562 6.265625 -16.429688 6.734375 -16.890625 C 7.203125 -17.359375 7.78125 -17.601562 8.46875 -17.625 C 9.832031 -17.707031 11.347656 -17.40625 13.015625 -16.71875 C 13.234375 -16.632812 13.296875 -16.488281 13.203125 -16.28125 C 13.117188 -16.070312 12.96875 -16.007812 12.75 -16.09375 C 12.21875 -16.3125 11.539062 -16.523438 10.71875 -16.734375 C 9.894531 -16.941406 9.132812 -17.007812 8.4375 -16.9375 C 7.988281 -16.875 7.585938 -16.707031 7.234375 -16.4375 C 6.890625 -16.164062 6.726562 -15.769531 6.75 -15.25 C 6.75 -14.738281 6.96875 -14.316406 7.40625 -13.984375 C 7.6875 -13.773438 8.132812 -13.550781 8.75 -13.3125 C 9.363281 -13.070312 10.046875 -12.773438 10.796875 -12.421875 C 11.546875 -12.078125 12.269531 -11.640625 12.96875 -11.109375 C 13.664062 -10.585938 14.238281 -9.941406 14.6875 -9.171875 C 15.132812 -8.398438 15.359375 -7.472656 15.359375 -6.390625 C 15.359375 -5.023438 15.082031 -3.859375 14.53125 -2.890625 C 13.976562 -1.929688 13.21875 -1.171875 12.25 -0.609375 C 11.289062 -0.046875 10.1875 0.296875 8.9375 0.421875 C 7.695312 0.546875 6.394531 0.445312 5.03125 0.125 C 4.488281 0 3.929688 -0.160156 3.359375 -0.359375 C 2.785156 -0.554688 2.195312 -0.804688 1.59375 -1.109375 Z M 1.59375 -1.109375 "/></g></g><g style="fill:#ff00ff;fill-opacity:1;"><g transform="translate(57.611475, 23.873542)"><path style="stroke:none" d="M 6.390625 -21.328125 C 6.242188 -21.503906 6.265625 -21.660156 6.453125 -21.796875 C 6.648438 -21.941406 6.804688 -21.914062 6.921875 -21.71875 L 15.671875 -9.25 L 15.671875 -21.515625 C 15.671875 -21.753906 15.789062 -21.875 16.03125 -21.875 C 16.269531 -21.875 16.390625 -21.753906 16.390625 -21.515625 L 16.390625 -8.140625 C 16.390625 -7.972656 16.300781 -7.859375 16.125 -7.796875 C 15.957031 -7.742188 15.820312 -7.785156 15.71875 -7.921875 Z M 3.109375 0 C 3.109375 0.21875 2.988281 0.328125 2.75 0.328125 C 2.519531 0.328125 2.40625 0.21875 2.40625 0 L 2.40625 -21.515625 C 2.40625 -21.753906 2.519531 -21.875 2.75 -21.875 C 2.988281 -21.875 3.109375 -21.753906 3.109375 -21.515625 Z M 20.671875 0 C 20.671875 0.21875 20.546875 0.328125 20.296875 0.328125 C 20.054688 0.328125 19.9375 0.21875 19.9375 0 L 19.9375 -21.515625 C 19.9375 -21.753906 20.054688 -21.875 20.296875 -21.875 C 20.546875 -21.875 20.671875 -21.753906 20.671875 -21.515625 Z M 16.71875 -0.203125 C 16.84375 -0.00390625 16.8125 0.15625 16.625 0.28125 C 16.445312 0.414062 16.273438 0.390625 16.109375 0.203125 L 7.4375 -12.296875 L 7.4375 0 C 7.4375 0.21875 7.316406 0.328125 7.078125 0.328125 C 6.835938 0.328125 6.71875 0.21875 6.71875 0 L 6.71875 -13.40625 C 6.71875 -13.5625 6.796875 -13.671875 6.953125 -13.734375 C 7.117188 -13.796875 7.257812 -13.753906 7.375 -13.609375 Z M 16.71875 -0.203125 "/></g></g><g style="fill:#ff00ff;fill-opacity:1;"><g transform="translate(79.623035, 23.873542)"><path style="stroke:none" d="M 13.921875 -0.359375 C 14.140625 -0.359375 14.25 -0.238281 14.25 0 C 14.25 0.21875 14.140625 0.328125 13.921875 0.328125 L 2.765625 0.328125 C 2.523438 0.328125 2.40625 0.21875 2.40625 0 L 2.40625 -21.546875 C 2.40625 -21.765625 2.523438 -21.875 2.765625 -21.875 L 13.921875 -21.875 C 14.140625 -21.875 14.25 -21.765625 14.25 -21.546875 C 14.25 -21.296875 14.140625 -21.171875 13.921875 -21.171875 L 3.109375 -21.171875 L 3.109375 -0.359375 Z M 13.921875 -17.5625 C 14.140625 -17.5625 14.25 -17.453125 14.25 -17.234375 C 14.25 -16.992188 14.140625 -16.875 13.921875 -16.875 L 7.40625 -16.875 L 7.40625 -13.28125 L 11.90625 -13.28125 C 12.144531 -13.28125 12.265625 -13.160156 12.265625 -12.921875 C 12.265625 -12.679688 12.144531 -12.5625 11.90625 -12.5625 L 7.078125 -12.5625 C 6.835938 -12.5625 6.71875 -12.679688 6.71875 -12.921875 L 6.71875 -17.234375 C 6.71875 -17.453125 6.835938 -17.5625 7.078125 -17.5625 Z M 11.90625 -8.984375 C 12.144531 -8.984375 12.265625 -8.859375 12.265625 -8.609375 C 12.265625 -8.390625 12.144531 -8.28125 11.90625 -8.28125 L 7.40625 -8.28125 L 7.40625 -4.671875 L 13.921875 -4.671875 C 14.140625 -4.671875 14.25 -4.550781 14.25 -4.3125 C 14.25 -4.082031 14.140625 -3.96875 13.921875 -3.96875 L 7.078125 -3.96875 C 6.835938 -3.96875 6.71875 -4.082031 6.71875 -4.3125 L 6.71875 -8.609375 C 6.71875 -8.859375 6.835938 -8.984375 7.078125 -8.984375 Z M 11.90625 -8.984375 "/></g></g><g style="fill:#ff00ff;fill-opacity:1;"><g transform="translate(94.407715, 23.873542)"><path style="stroke:none" d="M 0.9375 -21.171875 C 0.71875 -21.171875 0.609375 -21.285156 0.609375 -21.515625 C 0.609375 -21.734375 0.71875 -21.84375 0.9375 -21.84375 L 15.96875 -21.84375 C 16.207031 -21.84375 16.328125 -21.734375 16.328125 -21.515625 C 16.328125 -21.285156 16.207031 -21.171875 15.96875 -21.171875 Z M 0.9375 -16.84375 C 0.71875 -16.84375 0.609375 -16.972656 0.609375 -17.234375 C 0.609375 -17.453125 0.71875 -17.5625 0.9375 -17.5625 L 6.328125 -17.5625 C 6.546875 -17.5625 6.65625 -17.453125 6.65625 -17.234375 L 6.65625 0 C 6.65625 0.21875 6.546875 0.328125 6.328125 0.328125 C 6.085938 0.328125 5.96875 0.21875 5.96875 0 L 5.96875 -16.84375 Z M 16 -17.5625 C 16.21875 -17.5625 16.328125 -17.453125 16.328125 -17.234375 C 16.328125 -16.972656 16.21875 -16.84375 16 -16.84375 L 10.9375 -16.84375 L 10.9375 0 C 10.9375 0.21875 10.828125 0.328125 10.609375 0.328125 C 10.378906 0.328125 10.265625 0.21875 10.265625 0 L 10.265625 -17.234375 C 10.265625 -17.453125 10.378906 -17.5625 10.609375 -17.5625 Z M 16 -17.5625 "/></g></g><g style="fill:#ff00ff;fill-opacity:1;"><g transform="translate(110.487213, 23.873542)"><path style="stroke:none" d="M 26.296875 -21.421875 C 26.378906 -21.660156 26.53125 -21.726562 26.75 -21.625 C 26.925781 -21.53125 26.988281 -21.378906 26.9375 -21.171875 L 18.078125 0.578125 C 17.972656 0.753906 17.820312 0.8125 17.625 0.75 C 17.519531 0.726562 17.445312 0.671875 17.40625 0.578125 L 13.5625 -8.890625 L 9.734375 0.578125 C 9.628906 0.753906 9.476562 0.8125 9.28125 0.75 C 9.175781 0.726562 9.101562 0.671875 9.0625 0.578125 L 0.234375 -21.171875 C 0.117188 -21.359375 0.179688 -21.507812 0.421875 -21.625 C 0.503906 -21.664062 0.585938 -21.664062 0.671875 -21.625 C 0.765625 -21.582031 0.820312 -21.515625 0.84375 -21.421875 L 9.421875 -0.484375 L 13.25 -9.90625 C 13.3125 -10.050781 13.421875 -10.128906 13.578125 -10.140625 C 13.742188 -10.148438 13.859375 -10.070312 13.921875 -9.90625 L 17.75 -0.484375 Z M 4.90625 -21.171875 C 4.84375 -21.378906 4.90625 -21.53125 5.09375 -21.625 C 5.1875 -21.664062 5.285156 -21.664062 5.390625 -21.625 C 5.492188 -21.582031 5.554688 -21.515625 5.578125 -21.421875 L 9.421875 -12.015625 L 13.25 -21.421875 C 13.289062 -21.515625 13.359375 -21.582031 13.453125 -21.625 C 13.546875 -21.664062 13.628906 -21.664062 13.703125 -21.625 C 13.828125 -21.550781 13.898438 -21.484375 13.921875 -21.421875 L 17.75 -12.015625 L 21.59375 -21.421875 C 21.632812 -21.515625 21.695312 -21.582031 21.78125 -21.625 C 21.863281 -21.664062 21.941406 -21.664062 22.015625 -21.625 C 22.242188 -21.53125 22.328125 -21.378906 22.265625 -21.171875 L 18.078125 -10.9375 C 18.015625 -10.789062 17.898438 -10.71875 17.734375 -10.71875 C 17.578125 -10.71875 17.46875 -10.789062 17.40625 -10.9375 L 13.5625 -20.390625 L 9.734375 -10.9375 C 9.671875 -10.789062 9.554688 -10.71875 9.390625 -10.71875 C 9.234375 -10.71875 9.125 -10.789062 9.0625 -10.9375 Z M 4.90625 -21.171875 "/></g></g><g style="fill:#ff00ff;fill-opacity:1;"><g transform="translate(136.563887, 23.873542)"><path style="stroke:none" d="M 24.3125 -14.28125 C 24.351562 -14.195312 24.347656 -14.101562 24.296875 -14 C 24.242188 -13.90625 24.164062 -13.847656 24.0625 -13.828125 C 23.820312 -13.765625 23.675781 -13.84375 23.625 -14.0625 C 23.132812 -15.570312 22.367188 -16.894531 21.328125 -18.03125 C 20.285156 -19.164062 19.0625 -20.039062 17.65625 -20.65625 C 16.25 -21.28125 14.753906 -21.59375 13.171875 -21.59375 C 11.035156 -21.59375 9.15625 -21.128906 7.53125 -20.203125 C 5.90625 -19.285156 4.632812 -18.015625 3.71875 -16.390625 C 2.800781 -14.765625 2.34375 -12.90625 2.34375 -10.8125 C 2.34375 -8.726562 2.800781 -6.867188 3.71875 -5.234375 C 4.632812 -3.609375 5.90625 -2.328125 7.53125 -1.390625 C 9.15625 -0.460938 11.035156 0 13.171875 0 C 14.753906 0 16.25 -0.3125 17.65625 -0.9375 C 19.0625 -1.570312 20.285156 -2.457031 21.328125 -3.59375 C 22.367188 -4.726562 23.132812 -6.050781 23.625 -7.5625 C 23.675781 -7.78125 23.820312 -7.859375 24.0625 -7.796875 C 24.3125 -7.722656 24.394531 -7.570312 24.3125 -7.34375 C 23.8125 -5.738281 23 -4.328125 21.875 -3.109375 C 20.75 -1.898438 19.4375 -0.957031 17.9375 -0.28125 C 16.4375 0.382812 14.847656 0.71875 13.171875 0.71875 C 11.460938 0.71875 9.90625 0.429688 8.5 -0.140625 C 7.09375 -0.710938 5.875 -1.515625 4.84375 -2.546875 C 3.820312 -3.578125 3.035156 -4.796875 2.484375 -6.203125 C 1.929688 -7.609375 1.65625 -9.144531 1.65625 -10.8125 C 1.65625 -12.476562 1.929688 -14.007812 2.484375 -15.40625 C 3.035156 -16.800781 3.820312 -18.015625 4.84375 -19.046875 C 5.875 -20.085938 7.09375 -20.894531 8.5 -21.46875 C 9.90625 -22.039062 11.460938 -22.328125 13.171875 -22.328125 C 14.847656 -22.328125 16.4375 -21.988281 17.9375 -21.3125 C 19.4375 -20.632812 20.75 -19.691406 21.875 -18.484375 C 23 -17.285156 23.8125 -15.882812 24.3125 -14.28125 Z M 7.140625 -7.296875 C 7.097656 -7.367188 7.085938 -7.457031 7.109375 -7.5625 C 7.128906 -7.664062 7.179688 -7.734375 7.265625 -7.765625 C 7.484375 -7.890625 7.648438 -7.851562 7.765625 -7.65625 C 8.304688 -6.664062 9.0625 -5.882812 10.03125 -5.3125 C 11 -4.738281 12.046875 -4.453125 13.171875 -4.453125 C 14.328125 -4.453125 15.378906 -4.742188 16.328125 -5.328125 C 17.273438 -5.910156 18.023438 -6.679688 18.578125 -7.640625 C 19.128906 -8.609375 19.40625 -9.664062 19.40625 -10.8125 C 19.40625 -11.976562 19.128906 -13.035156 18.578125 -13.984375 C 18.023438 -14.941406 17.273438 -15.710938 16.328125 -16.296875 C 15.378906 -16.878906 14.328125 -17.171875 13.171875 -17.171875 C 12.046875 -17.171875 11 -16.882812 10.03125 -16.3125 C 9.0625 -15.738281 8.304688 -14.960938 7.765625 -13.984375 C 7.671875 -13.753906 7.503906 -13.703125 7.265625 -13.828125 C 7.078125 -13.960938 7.035156 -14.132812 7.140625 -14.34375 C 7.765625 -15.425781 8.613281 -16.28125 9.6875 -16.90625 C 10.757812 -17.539062 11.921875 -17.859375 13.171875 -17.859375 C 14.472656 -17.859375 15.644531 -17.535156 16.6875 -16.890625 C 17.726562 -16.253906 18.5625 -15.40625 19.1875 -14.34375 C 19.8125 -13.28125 20.125 -12.101562 20.125 -10.8125 C 20.125 -9.53125 19.8125 -8.347656 19.1875 -7.265625 C 18.5625 -6.191406 17.726562 -5.332031 16.6875 -4.6875 C 15.644531 -4.050781 14.472656 -3.734375 13.171875 -3.734375 C 11.921875 -3.734375 10.757812 -4.050781 9.6875 -4.6875 C 8.613281 -5.332031 7.765625 -6.203125 7.140625 -7.296875 Z M 7.140625 -7.296875 "/></g></g><g style="fill:#ff00ff;fill-opacity:1;"><g transform="translate(161.436081, 23.873542)"><path style="stroke:none" d="M 3.109375 0 C 3.109375 0.238281 2.984375 0.359375 2.734375 0.359375 C 2.515625 0.359375 2.40625 0.238281 2.40625 0 L 2.40625 -21.546875 C 2.40625 -21.785156 2.515625 -21.90625 2.734375 -21.90625 L 11.203125 -21.90625 C 12.472656 -21.90625 13.613281 -21.59375 14.625 -20.96875 C 15.632812 -20.34375 16.441406 -19.515625 17.046875 -18.484375 C 17.648438 -17.453125 17.953125 -16.3125 17.953125 -15.0625 C 17.953125 -13.914062 17.691406 -12.847656 17.171875 -11.859375 C 16.648438 -10.878906 15.929688 -10.066406 15.015625 -9.421875 C 14.097656 -8.785156 13.066406 -8.40625 11.921875 -8.28125 L 18.171875 -0.203125 C 18.304688 -0.0234375 18.285156 0.117188 18.109375 0.234375 C 17.941406 0.398438 17.769531 0.382812 17.59375 0.1875 L 10.96875 -8.375 C 10.90625 -8.4375 10.875 -8.515625 10.875 -8.609375 C 10.875 -8.859375 10.984375 -8.984375 11.203125 -8.984375 C 12.328125 -8.984375 13.347656 -9.257812 14.265625 -9.8125 C 15.179688 -10.363281 15.90625 -11.097656 16.4375 -12.015625 C 16.96875 -12.941406 17.234375 -13.957031 17.234375 -15.0625 C 17.234375 -16.1875 16.96875 -17.207031 16.4375 -18.125 C 15.90625 -19.050781 15.179688 -19.789062 14.265625 -20.34375 C 13.347656 -20.894531 12.328125 -21.171875 11.203125 -21.171875 L 3.109375 -21.171875 Z M 9.640625 -12.59375 C 9.398438 -12.59375 9.28125 -12.703125 9.28125 -12.921875 C 9.28125 -13.140625 9.398438 -13.25 9.640625 -13.25 L 10.84375 -13.25 C 11.363281 -13.25 11.804688 -13.425781 12.171875 -13.78125 C 12.535156 -14.132812 12.71875 -14.5625 12.71875 -15.0625 C 12.71875 -15.582031 12.535156 -16.015625 12.171875 -16.359375 C 11.804688 -16.703125 11.363281 -16.875 10.84375 -16.875 L 7.046875 -16.875 C 6.828125 -16.875 6.71875 -16.988281 6.71875 -17.21875 C 6.71875 -17.445312 6.828125 -17.5625 7.046875 -17.5625 L 10.84375 -17.5625 C 11.550781 -17.5625 12.15625 -17.320312 12.65625 -16.84375 C 13.15625 -16.375 13.40625 -15.78125 13.40625 -15.0625 C 13.40625 -14.363281 13.15625 -13.773438 12.65625 -13.296875 C 12.15625 -12.828125 11.550781 -12.59375 10.84375 -12.59375 Z M 12.921875 -0.203125 C 13.066406 -0.0234375 13.046875 0.128906 12.859375 0.265625 C 12.660156 0.429688 12.488281 0.40625 12.34375 0.1875 L 7.40625 -6.453125 L 7.40625 0 C 7.40625 0.0820312 7.367188 0.160156 7.296875 0.234375 C 7.234375 0.316406 7.148438 0.359375 7.046875 0.359375 C 6.828125 0.359375 6.71875 0.238281 6.71875 0 L 6.71875 -7.46875 C 6.695312 -7.570312 6.738281 -7.671875 6.84375 -7.765625 C 7.019531 -7.890625 7.179688 -7.863281 7.328125 -7.6875 Z M 12.921875 -0.203125 "/></g></g><g style="fill:#ff00ff;fill-opacity:1;"><g transform="translate(179.051287, 23.873542)"><path style="stroke:none" d="M 11.71875 -21.75 C 11.851562 -21.925781 12.023438 -21.945312 12.234375 -21.8125 C 12.410156 -21.664062 12.429688 -21.503906 12.296875 -21.328125 L 7.34375 -14.703125 C 7.207031 -14.523438 7.050781 -14.503906 6.875 -14.640625 C 6.769531 -14.703125 6.71875 -14.800781 6.71875 -14.9375 L 6.71875 -21.546875 C 6.71875 -21.765625 6.835938 -21.875 7.078125 -21.875 C 7.296875 -21.875 7.40625 -21.765625 7.40625 -21.546875 L 7.40625 -15.96875 Z M 16.953125 -21.75 C 17.097656 -21.925781 17.269531 -21.945312 17.46875 -21.8125 C 17.65625 -21.664062 17.675781 -21.503906 17.53125 -21.328125 L 10.1875 -11.234375 L 17.984375 -0.203125 C 18.128906 -0.046875 18.097656 0.109375 17.890625 0.265625 C 17.734375 0.410156 17.570312 0.382812 17.40625 0.1875 L 9.453125 -11.03125 C 9.359375 -11.164062 9.359375 -11.304688 9.453125 -11.453125 Z M 3.109375 0 C 3.109375 0.21875 2.992188 0.328125 2.765625 0.328125 C 2.523438 0.328125 2.40625 0.21875 2.40625 0 L 2.40625 -21.546875 C 2.40625 -21.765625 2.523438 -21.875 2.765625 -21.875 C 2.992188 -21.875 3.109375 -21.765625 3.109375 -21.546875 Z M 12.75 -0.203125 C 12.863281 -0.0234375 12.832031 0.128906 12.65625 0.265625 C 12.488281 0.410156 12.328125 0.382812 12.171875 0.1875 L 7.40625 -6.484375 L 7.40625 0 C 7.40625 0.21875 7.296875 0.328125 7.078125 0.328125 C 6.835938 0.328125 6.71875 0.21875 6.71875 0 L 6.71875 -7.53125 C 6.71875 -7.664062 6.769531 -7.765625 6.875 -7.828125 C 7.050781 -7.972656 7.207031 -7.941406 7.34375 -7.734375 Z M 12.75 -0.203125 "/></g></g><g style="fill:#ff00ff;fill-opacity:1;"><g transform="translate(196.45571, 23.873542)"><path style="stroke:none" d="M 15.265625 -0.359375 C 15.515625 -0.359375 15.640625 -0.238281 15.640625 0 C 15.640625 0.21875 15.515625 0.328125 15.265625 0.328125 L 2.734375 0.328125 C 2.515625 0.328125 2.40625 0.21875 2.40625 0 L 2.40625 -21.546875 C 2.40625 -21.765625 2.515625 -21.875 2.734375 -21.875 C 2.984375 -21.875 3.109375 -21.765625 3.109375 -21.546875 L 3.109375 -0.359375 Z M 6.6875 -21.546875 C 6.6875 -21.765625 6.804688 -21.875 7.046875 -21.875 C 7.285156 -21.875 7.40625 -21.765625 7.40625 -21.546875 L 7.40625 -4.671875 L 15.265625 -4.671875 C 15.515625 -4.671875 15.640625 -4.550781 15.640625 -4.3125 C 15.640625 -4.082031 15.515625 -3.96875 15.265625 -3.96875 L 7.046875 -3.96875 C 6.804688 -3.96875 6.6875 -4.082031 6.6875 -4.3125 Z M 6.6875 -21.546875 "/></g></g><g style="fill:#ff00ff;fill-opacity:1;"><g transform="translate(212.294316, 23.873542)"><path style="stroke:none" d="M 1.171875 -0.203125 C 1.109375 0.015625 0.957031 0.0820312 0.71875 0 C 0.644531 -0.0390625 0.585938 -0.101562 0.546875 -0.1875 C 0.503906 -0.28125 0.503906 -0.367188 0.546875 -0.453125 L 9.375 -22.109375 C 9.425781 -22.273438 9.53125 -22.359375 9.6875 -22.359375 C 9.851562 -22.359375 9.96875 -22.273438 10.03125 -22.109375 L 18.859375 -0.453125 C 18.898438 -0.367188 18.90625 -0.28125 18.875 -0.1875 C 18.84375 -0.101562 18.773438 -0.0390625 18.671875 0 C 18.429688 0.0820312 18.28125 0.015625 18.21875 -0.203125 L 9.703125 -21.09375 Z M 8.109375 -6.296875 C 7.859375 -6.296875 7.734375 -6.40625 7.734375 -6.625 C 7.734375 -6.84375 7.859375 -6.953125 8.109375 -6.953125 L 10.78125 -6.953125 L 9.375 -10.390625 C 9.289062 -10.609375 9.347656 -10.757812 9.546875 -10.84375 C 9.765625 -10.945312 9.925781 -10.878906 10.03125 -10.640625 L 11.59375 -6.78125 C 11.613281 -6.738281 11.625 -6.6875 11.625 -6.625 C 11.625 -6.40625 11.503906 -6.296875 11.265625 -6.296875 Z M 5.84375 -0.203125 C 5.78125 0.015625 5.640625 0.0820312 5.421875 0 C 5.316406 -0.0390625 5.242188 -0.101562 5.203125 -0.1875 C 5.171875 -0.28125 5.175781 -0.367188 5.21875 -0.453125 L 6.03125 -2.40625 C 6.050781 -2.550781 6.160156 -2.625 6.359375 -2.625 L 13.046875 -2.625 C 13.222656 -2.625 13.332031 -2.550781 13.375 -2.40625 L 14.1875 -0.453125 C 14.226562 -0.367188 14.226562 -0.28125 14.1875 -0.1875 C 14.144531 -0.101562 14.078125 -0.0390625 13.984375 0 C 13.773438 0.0625 13.625 -0.00390625 13.53125 -0.203125 L 12.796875 -1.953125 L 6.5625 -1.953125 Z M 5.84375 -0.203125 "/></g></g><g style="fill:#ff00ff;fill-opacity:1;"><g transform="translate(230.692425, 23.873542)"><path style="stroke:none" d="M 8.40625 -0.0625 C 8.40625 0.195312 8.285156 0.328125 8.046875 0.328125 C 7.804688 0.328125 7.6875 0.195312 7.6875 -0.0625 L 7.6875 -9.515625 L 0.265625 -21.359375 C 0.128906 -21.515625 0.160156 -21.675781 0.359375 -21.84375 C 0.535156 -21.9375 0.695312 -21.894531 0.84375 -21.71875 L 8.34375 -9.828125 C 8.382812 -9.742188 8.40625 -9.679688 8.40625 -9.640625 Z M 5.515625 -21.359375 C 5.367188 -21.578125 5.410156 -21.738281 5.640625 -21.84375 C 5.816406 -21.957031 5.960938 -21.914062 6.078125 -21.71875 L 10.1875 -14.765625 L 14.28125 -21.71875 C 14.4375 -21.882812 14.609375 -21.925781 14.796875 -21.84375 C 14.972656 -21.71875 15.007812 -21.554688 14.90625 -21.359375 L 10.515625 -13.890625 C 10.429688 -13.765625 10.320312 -13.703125 10.1875 -13.703125 C 10.0625 -13.703125 9.957031 -13.765625 9.875 -13.890625 Z M 19.546875 -21.71875 C 19.691406 -21.894531 19.851562 -21.9375 20.03125 -21.84375 C 20.226562 -21.71875 20.269531 -21.554688 20.15625 -21.359375 L 12.6875 -9.515625 L 12.6875 -0.0625 C 12.6875 0.195312 12.570312 0.328125 12.34375 0.328125 C 12.125 0.328125 12.015625 0.195312 12.015625 -0.0625 L 12.015625 -9.609375 C 12.015625 -9.691406 12.023438 -9.765625 12.046875 -9.828125 Z M 19.546875 -21.71875 "/></g></g><g style="fill:#ff00ff;fill-opacity:1;"><g transform="translate(249.873481, 23.873542)"><path style="stroke:none" d="M 13.921875 -0.359375 C 14.140625 -0.359375 14.25 -0.238281 14.25 0 C 14.25 0.21875 14.140625 0.328125 13.921875 0.328125 L 2.765625 0.328125 C 2.523438 0.328125 2.40625 0.21875 2.40625 0 L 2.40625 -21.546875 C 2.40625 -21.765625 2.523438 -21.875 2.765625 -21.875 L 13.921875 -21.875 C 14.140625 -21.875 14.25 -21.765625 14.25 -21.546875 C 14.25 -21.296875 14.140625 -21.171875 13.921875 -21.171875 L 3.109375 -21.171875 L 3.109375 -0.359375 Z M 13.921875 -17.5625 C 14.140625 -17.5625 14.25 -17.453125 14.25 -17.234375 C 14.25 -16.992188 14.140625 -16.875 13.921875 -16.875 L 7.40625 -16.875 L 7.40625 -13.28125 L 11.90625 -13.28125 C 12.144531 -13.28125 12.265625 -13.160156 12.265625 -12.921875 C 12.265625 -12.679688 12.144531 -12.5625 11.90625 -12.5625 L 7.078125 -12.5625 C 6.835938 -12.5625 6.71875 -12.679688 6.71875 -12.921875 L 6.71875 -17.234375 C 6.71875 -17.453125 6.835938 -17.5625 7.078125 -17.5625 Z M 11.90625 -8.984375 C 12.144531 -8.984375 12.265625 -8.859375 12.265625 -8.609375 C 12.265625 -8.390625 12.144531 -8.28125 11.90625 -8.28125 L 7.40625 -8.28125 L 7.40625 -4.671875 L 13.921875 -4.671875 C 14.140625 -4.671875 14.25 -4.550781 14.25 -4.3125 C 14.25 -4.082031 14.140625 -3.96875 13.921875 -3.96875 L 7.078125 -3.96875 C 6.835938 -3.96875 6.71875 -4.082031 6.71875 -4.3125 L 6.71875 -8.609375 C 6.71875 -8.859375 6.835938 -8.984375 7.078125 -8.984375 Z M 11.90625 -8.984375 "/></g></g><g style="fill:#ff00ff;fill-opacity:1;"><g transform="translate(264.658161, 23.873542)"><path style="stroke:none" d="M 3.109375 0 C 3.109375 0.238281 2.984375 0.359375 2.734375 0.359375 C 2.515625 0.359375 2.40625 0.238281 2.40625 0 L 2.40625 -21.546875 C 2.40625 -21.785156 2.515625 -21.90625 2.734375 -21.90625 L 11.203125 -21.90625 C 12.472656 -21.90625 13.613281 -21.59375 14.625 -20.96875 C 15.632812 -20.34375 16.441406 -19.515625 17.046875 -18.484375 C 17.648438 -17.453125 17.953125 -16.3125 17.953125 -15.0625 C 17.953125 -13.914062 17.691406 -12.847656 17.171875 -11.859375 C 16.648438 -10.878906 15.929688 -10.066406 15.015625 -9.421875 C 14.097656 -8.785156 13.066406 -8.40625 11.921875 -8.28125 L 18.171875 -0.203125 C 18.304688 -0.0234375 18.285156 0.117188 18.109375 0.234375 C 17.941406 0.398438 17.769531 0.382812 17.59375 0.1875 L 10.96875 -8.375 C 10.90625 -8.4375 10.875 -8.515625 10.875 -8.609375 C 10.875 -8.859375 10.984375 -8.984375 11.203125 -8.984375 C 12.328125 -8.984375 13.347656 -9.257812 14.265625 -9.8125 C 15.179688 -10.363281 15.90625 -11.097656 16.4375 -12.015625 C 16.96875 -12.941406 17.234375 -13.957031 17.234375 -15.0625 C 17.234375 -16.1875 16.96875 -17.207031 16.4375 -18.125 C 15.90625 -19.050781 15.179688 -19.789062 14.265625 -20.34375 C 13.347656 -20.894531 12.328125 -21.171875 11.203125 -21.171875 L 3.109375 -21.171875 Z M 9.640625 -12.59375 C 9.398438 -12.59375 9.28125 -12.703125 9.28125 -12.921875 C 9.28125 -13.140625 9.398438 -13.25 9.640625 -13.25 L 10.84375 -13.25 C 11.363281 -13.25 11.804688 -13.425781 12.171875 -13.78125 C 12.535156 -14.132812 12.71875 -14.5625 12.71875 -15.0625 C 12.71875 -15.582031 12.535156 -16.015625 12.171875 -16.359375 C 11.804688 -16.703125 11.363281 -16.875 10.84375 -16.875 L 7.046875 -16.875 C 6.828125 -16.875 6.71875 -16.988281 6.71875 -17.21875 C 6.71875 -17.445312 6.828125 -17.5625 7.046875 -17.5625 L 10.84375 -17.5625 C 11.550781 -17.5625 12.15625 -17.320312 12.65625 -16.84375 C 13.15625 -16.375 13.40625 -15.78125 13.40625 -15.0625 C 13.40625 -14.363281 13.15625 -13.773438 12.65625 -13.296875 C 12.15625 -12.828125 11.550781 -12.59375 10.84375 -12.59375 Z M 12.921875 -0.203125 C 13.066406 -0.0234375 13.046875 0.128906 12.859375 0.265625 C 12.660156 0.429688 12.488281 0.40625 12.34375 0.1875 L 7.40625 -6.453125 L 7.40625 0 C 7.40625 0.0820312 7.367188 0.160156 7.296875 0.234375 C 7.234375 0.316406 7.148438 0.359375 7.046875 0.359375 C 6.828125 0.359375 6.71875 0.238281 6.71875 0 L 6.71875 -7.46875 C 6.695312 -7.570312 6.738281 -7.671875 6.84375 -7.765625 C 7.019531 -7.890625 7.179688 -7.863281 7.328125 -7.6875 Z M 12.921875 -0.203125 "/></g></g><g style="fill:#00ffff;fill-opacity:1;"><g transform="translate(41.067697, 25.648532)"><path style="stroke:none" d="M 13.5625 -21.0625 C 13.78125 -20.976562 13.847656 -20.828125 13.765625 -20.609375 C 13.679688 -20.398438 13.53125 -20.335938 13.3125 -20.421875 C 12.25 -20.804688 11.148438 -21.070312 10.015625 -21.21875 C 8.878906 -21.375 7.796875 -21.328125 6.765625 -21.078125 C 5.734375 -20.828125 4.8125 -20.269531 4 -19.40625 C 3.363281 -18.71875 2.910156 -17.875 2.640625 -16.875 C 2.367188 -15.882812 2.34375 -14.878906 2.5625 -13.859375 C 2.78125 -12.847656 3.320312 -11.953125 4.1875 -11.171875 C 4.925781 -10.535156 5.679688 -10.050781 6.453125 -9.71875 C 7.234375 -9.382812 7.957031 -9.09375 8.625 -8.84375 C 9.300781 -8.59375 9.851562 -8.289062 10.28125 -7.9375 C 10.71875 -7.582031 10.957031 -7.054688 11 -6.359375 C 11.039062 -5.648438 10.789062 -5.066406 10.25 -4.609375 C 9.71875 -4.148438 9.101562 -3.898438 8.40625 -3.859375 C 7.457031 -3.796875 6.414062 -3.898438 5.28125 -4.171875 C 4.144531 -4.441406 3.097656 -4.929688 2.140625 -5.640625 C 1.941406 -5.773438 1.910156 -5.929688 2.046875 -6.109375 C 2.191406 -6.296875 2.351562 -6.328125 2.53125 -6.203125 C 3.007812 -5.878906 3.578125 -5.578125 4.234375 -5.296875 C 4.898438 -5.015625 5.585938 -4.800781 6.296875 -4.65625 C 7.015625 -4.519531 7.6875 -4.484375 8.3125 -4.546875 C 8.9375 -4.609375 9.441406 -4.8125 9.828125 -5.15625 C 10.179688 -5.488281 10.335938 -5.882812 10.296875 -6.34375 C 10.265625 -6.8125 10.078125 -7.207031 9.734375 -7.53125 C 9.453125 -7.769531 9 -8.003906 8.375 -8.234375 C 7.75 -8.460938 7.0625 -8.742188 6.3125 -9.078125 C 5.5625 -9.410156 4.832031 -9.832031 4.125 -10.34375 C 3.425781 -10.851562 2.847656 -11.488281 2.390625 -12.25 C 1.941406 -13.019531 1.71875 -13.96875 1.71875 -15.09375 C 1.71875 -16.65625 2.085938 -17.984375 2.828125 -19.078125 C 3.578125 -20.171875 4.59375 -20.96875 5.875 -21.46875 C 7.15625 -21.976562 8.601562 -22.125 10.21875 -21.90625 C 10.632812 -21.84375 11.117188 -21.742188 11.671875 -21.609375 C 12.222656 -21.484375 12.851562 -21.300781 13.5625 -21.0625 Z M 1.59375 -1.109375 C 1.394531 -1.210938 1.351562 -1.363281 1.46875 -1.5625 C 1.59375 -1.769531 1.753906 -1.820312 1.953125 -1.71875 C 2.816406 -1.269531 3.75 -0.90625 4.75 -0.625 C 5.757812 -0.34375 6.765625 -0.191406 7.765625 -0.171875 C 8.773438 -0.160156 9.726562 -0.300781 10.625 -0.59375 C 11.53125 -0.882812 12.316406 -1.359375 12.984375 -2.015625 C 13.671875 -2.722656 14.15625 -3.5625 14.4375 -4.53125 C 14.726562 -5.507812 14.765625 -6.503906 14.546875 -7.515625 C 14.328125 -8.523438 13.785156 -9.425781 12.921875 -10.21875 C 12.179688 -10.914062 11.414062 -11.441406 10.625 -11.796875 C 9.84375 -12.148438 9.113281 -12.453125 8.4375 -12.703125 C 7.769531 -12.953125 7.210938 -13.25 6.765625 -13.59375 C 6.328125 -13.945312 6.09375 -14.46875 6.0625 -15.15625 C 6.039062 -15.851562 6.265625 -16.429688 6.734375 -16.890625 C 7.203125 -17.359375 7.78125 -17.601562 8.46875 -17.625 C 9.832031 -17.707031 11.347656 -17.40625 13.015625 -16.71875 C 13.234375 -16.632812 13.296875 -16.488281 13.203125 -16.28125 C 13.117188 -16.070312 12.96875 -16.007812 12.75 -16.09375 C 12.21875 -16.3125 11.539062 -16.523438 10.71875 -16.734375 C 9.894531 -16.941406 9.132812 -17.007812 8.4375 -16.9375 C 7.988281 -16.875 7.585938 -16.707031 7.234375 -16.4375 C 6.890625 -16.164062 6.726562 -15.769531 6.75 -15.25 C 6.75 -14.738281 6.96875 -14.316406 7.40625 -13.984375 C 7.6875 -13.773438 8.132812 -13.550781 8.75 -13.3125 C 9.363281 -13.070312 10.046875 -12.773438 10.796875 -12.421875 C 11.546875 -12.078125 12.269531 -11.640625 12.96875 -11.109375 C 13.664062 -10.585938 14.238281 -9.941406 14.6875 -9.171875 C 15.132812 -8.398438 15.359375 -7.472656 15.359375 -6.390625 C 15.359375 -5.023438 15.082031 -3.859375 14.53125 -2.890625 C 13.976562 -1.929688 13.21875 -1.171875 12.25 -0.609375 C 11.289062 -0.046875 10.1875 0.296875 8.9375 0.421875 C 7.695312 0.546875 6.394531 0.445312 5.03125 0.125 C 4.488281 0 3.929688 -0.160156 3.359375 -0.359375 C 2.785156 -0.554688 2.195312 -0.804688 1.59375 -1.109375 Z M 1.59375 -1.109375 "/></g></g><g style="fill:#00ffff;fill-opacity:1;"><g transform="translate(56.544954, 25.648532)"><path style="stroke:none" d="M 6.390625 -21.328125 C 6.242188 -21.503906 6.265625 -21.660156 6.453125 -21.796875 C 6.648438 -21.941406 6.804688 -21.914062 6.921875 -21.71875 L 15.671875 -9.25 L 15.671875 -21.515625 C 15.671875 -21.753906 15.789062 -21.875 16.03125 -21.875 C 16.269531 -21.875 16.390625 -21.753906 16.390625 -21.515625 L 16.390625 -8.140625 C 16.390625 -7.972656 16.300781 -7.859375 16.125 -7.796875 C 15.957031 -7.742188 15.820312 -7.785156 15.71875 -7.921875 Z M 3.109375 0 C 3.109375 0.21875 2.988281 0.328125 2.75 0.328125 C 2.519531 0.328125 2.40625 0.21875 2.40625 0 L 2.40625 -21.515625 C 2.40625 -21.753906 2.519531 -21.875 2.75 -21.875 C 2.988281 -21.875 3.109375 -21.753906 3.109375 -21.515625 Z M 20.671875 0 C 20.671875 0.21875 20.546875 0.328125 20.296875 0.328125 C 20.054688 0.328125 19.9375 0.21875 19.9375 0 L 19.9375 -21.515625 C 19.9375 -21.753906 20.054688 -21.875 20.296875 -21.875 C 20.546875 -21.875 20.671875 -21.753906 20.671875 -21.515625 Z M 16.71875 -0.203125 C 16.84375 -0.00390625 16.8125 0.15625 16.625 0.28125 C 16.445312 0.414062 16.273438 0.390625 16.109375 0.203125 L 7.4375 -12.296875 L 7.4375 0 C 7.4375 0.21875 7.316406 0.328125 7.078125 0.328125 C 6.835938 0.328125 6.71875 0.21875 6.71875 0 L 6.71875 -13.40625 C 6.71875 -13.5625 6.796875 -13.671875 6.953125 -13.734375 C 7.117188 -13.796875 7.257812 -13.753906 7.375 -13.609375 Z M 16.71875 -0.203125 "/></g></g><g style="fill:#00ffff;fill-opacity:1;"><g transform="translate(78.556514, 25.648532)"><path style="stroke:none" d="M 13.921875 -0.359375 C 14.140625 -0.359375 14.25 -0.238281 14.25 0 C 14.25 0.21875 14.140625 0.328125 13.921875 0.328125 L 2.765625 0.328125 C 2.523438 0.328125 2.40625 0.21875 2.40625 0 L 2.40625 -21.546875 C 2.40625 -21.765625 2.523438 -21.875 2.765625 -21.875 L 13.921875 -21.875 C 14.140625 -21.875 14.25 -21.765625 14.25 -21.546875 C 14.25 -21.296875 14.140625 -21.171875 13.921875 -21.171875 L 3.109375 -21.171875 L 3.109375 -0.359375 Z M 13.921875 -17.5625 C 14.140625 -17.5625 14.25 -17.453125 14.25 -17.234375 C 14.25 -16.992188 14.140625 -16.875 13.921875 -16.875 L 7.40625 -16.875 L 7.40625 -13.28125 L 11.90625 -13.28125 C 12.144531 -13.28125 12.265625 -13.160156 12.265625 -12.921875 C 12.265625 -12.679688 12.144531 -12.5625 11.90625 -12.5625 L 7.078125 -12.5625 C 6.835938 -12.5625 6.71875 -12.679688 6.71875 -12.921875 L 6.71875 -17.234375 C 6.71875 -17.453125 6.835938 -17.5625 7.078125 -17.5625 Z M 11.90625 -8.984375 C 12.144531 -8.984375 12.265625 -8.859375 12.265625 -8.609375 C 12.265625 -8.390625 12.144531 -8.28125 11.90625 -8.28125 L 7.40625 -8.28125 L 7.40625 -4.671875 L 13.921875 -4.671875 C 14.140625 -4.671875 14.25 -4.550781 14.25 -4.3125 C 14.25 -4.082031 14.140625 -3.96875 13.921875 -3.96875 L 7.078125 -3.96875 C 6.835938 -3.96875 6.71875 -4.082031 6.71875 -4.3125 L 6.71875 -8.609375 C 6.71875 -8.859375 6.835938 -8.984375 7.078125 -8.984375 Z M 11.90625 -8.984375 "/></g></g><g style="fill:#00ffff;fill-opacity:1;"><g transform="translate(93.341194, 25.648532)"><path style="stroke:none" d="M 0.9375 -21.171875 C 0.71875 -21.171875 0.609375 -21.285156 0.609375 -21.515625 C 0.609375 -21.734375 0.71875 -21.84375 0.9375 -21.84375 L 15.96875 -21.84375 C 16.207031 -21.84375 16.328125 -21.734375 16.328125 -21.515625 C 16.328125 -21.285156 16.207031 -21.171875 15.96875 -21.171875 Z M 0.9375 -16.84375 C 0.71875 -16.84375 0.609375 -16.972656 0.609375 -17.234375 C 0.609375 -17.453125 0.71875 -17.5625 0.9375 -17.5625 L 6.328125 -17.5625 C 6.546875 -17.5625 6.65625 -17.453125 6.65625 -17.234375 L 6.65625 0 C 6.65625 0.21875 6.546875 0.328125 6.328125 0.328125 C 6.085938 0.328125 5.96875 0.21875 5.96875 0 L 5.96875 -16.84375 Z M 16 -17.5625 C 16.21875 -17.5625 16.328125 -17.453125 16.328125 -17.234375 C 16.328125 -16.972656 16.21875 -16.84375 16 -16.84375 L 10.9375 -16.84375 L 10.9375 0 C 10.9375 0.21875 10.828125 0.328125 10.609375 0.328125 C 10.378906 0.328125 10.265625 0.21875 10.265625 0 L 10.265625 -17.234375 C 10.265625 -17.453125 10.378906 -17.5625 10.609375 -17.5625 Z M 16 -17.5625 "/></g></g><g style="fill:#00ffff;fill-opacity:1;"><g transform="translate(109.420692, 25.648532)"><path style="stroke:none" d="M 26.296875 -21.421875 C 26.378906 -21.660156 26.53125 -21.726562 26.75 -21.625 C 26.925781 -21.53125 26.988281 -21.378906 26.9375 -21.171875 L 18.078125 0.578125 C 17.972656 0.753906 17.820312 0.8125 17.625 0.75 C 17.519531 0.726562 17.445312 0.671875 17.40625 0.578125 L 13.5625 -8.890625 L 9.734375 0.578125 C 9.628906 0.753906 9.476562 0.8125 9.28125 0.75 C 9.175781 0.726562 9.101562 0.671875 9.0625 0.578125 L 0.234375 -21.171875 C 0.117188 -21.359375 0.179688 -21.507812 0.421875 -21.625 C 0.503906 -21.664062 0.585938 -21.664062 0.671875 -21.625 C 0.765625 -21.582031 0.820312 -21.515625 0.84375 -21.421875 L 9.421875 -0.484375 L 13.25 -9.90625 C 13.3125 -10.050781 13.421875 -10.128906 13.578125 -10.140625 C 13.742188 -10.148438 13.859375 -10.070312 13.921875 -9.90625 L 17.75 -0.484375 Z M 4.90625 -21.171875 C 4.84375 -21.378906 4.90625 -21.53125 5.09375 -21.625 C 5.1875 -21.664062 5.285156 -21.664062 5.390625 -21.625 C 5.492188 -21.582031 5.554688 -21.515625 5.578125 -21.421875 L 9.421875 -12.015625 L 13.25 -21.421875 C 13.289062 -21.515625 13.359375 -21.582031 13.453125 -21.625 C 13.546875 -21.664062 13.628906 -21.664062 13.703125 -21.625 C 13.828125 -21.550781 13.898438 -21.484375 13.921875 -21.421875 L 17.75 -12.015625 L 21.59375 -21.421875 C 21.632812 -21.515625 21.695312 -21.582031 21.78125 -21.625 C 21.863281 -21.664062 21.941406 -21.664062 22.015625 -21.625 C 22.242188 -21.53125 22.328125 -21.378906 22.265625 -21.171875 L 18.078125 -10.9375 C 18.015625 -10.789062 17.898438 -10.71875 17.734375 -10.71875 C 17.578125 -10.71875 17.46875 -10.789062 17.40625 -10.9375 L 13.5625 -20.390625 L 9.734375 -10.9375 C 9.671875 -10.789062 9.554688 -10.71875 9.390625 -10.71875 C 9.234375 -10.71875 9.125 -10.789062 9.0625 -10.9375 Z M 4.90625 -21.171875 "/></g></g><g style="fill:#00ffff;fill-opacity:1;"><g transform="translate(135.497366, 25.648532)"><path style="stroke:none" d="M 24.3125 -14.28125 C 24.351562 -14.195312 24.347656 -14.101562 24.296875 -14 C 24.242188 -13.90625 24.164062 -13.847656 24.0625 -13.828125 C 23.820312 -13.765625 23.675781 -13.84375 23.625 -14.0625 C 23.132812 -15.570312 22.367188 -16.894531 21.328125 -18.03125 C 20.285156 -19.164062 19.0625 -20.039062 17.65625 -20.65625 C 16.25 -21.28125 14.753906 -21.59375 13.171875 -21.59375 C 11.035156 -21.59375 9.15625 -21.128906 7.53125 -20.203125 C 5.90625 -19.285156 4.632812 -18.015625 3.71875 -16.390625 C 2.800781 -14.765625 2.34375 -12.90625 2.34375 -10.8125 C 2.34375 -8.726562 2.800781 -6.867188 3.71875 -5.234375 C 4.632812 -3.609375 5.90625 -2.328125 7.53125 -1.390625 C 9.15625 -0.460938 11.035156 0 13.171875 0 C 14.753906 0 16.25 -0.3125 17.65625 -0.9375 C 19.0625 -1.570312 20.285156 -2.457031 21.328125 -3.59375 C 22.367188 -4.726562 23.132812 -6.050781 23.625 -7.5625 C 23.675781 -7.78125 23.820312 -7.859375 24.0625 -7.796875 C 24.3125 -7.722656 24.394531 -7.570312 24.3125 -7.34375 C 23.8125 -5.738281 23 -4.328125 21.875 -3.109375 C 20.75 -1.898438 19.4375 -0.957031 17.9375 -0.28125 C 16.4375 0.382812 14.847656 0.71875 13.171875 0.71875 C 11.460938 0.71875 9.90625 0.429688 8.5 -0.140625 C 7.09375 -0.710938 5.875 -1.515625 4.84375 -2.546875 C 3.820312 -3.578125 3.035156 -4.796875 2.484375 -6.203125 C 1.929688 -7.609375 1.65625 -9.144531 1.65625 -10.8125 C 1.65625 -12.476562 1.929688 -14.007812 2.484375 -15.40625 C 3.035156 -16.800781 3.820312 -18.015625 4.84375 -19.046875 C 5.875 -20.085938 7.09375 -20.894531 8.5 -21.46875 C 9.90625 -22.039062 11.460938 -22.328125 13.171875 -22.328125 C 14.847656 -22.328125 16.4375 -21.988281 17.9375 -21.3125 C 19.4375 -20.632812 20.75 -19.691406 21.875 -18.484375 C 23 -17.285156 23.8125 -15.882812 24.3125 -14.28125 Z M 7.140625 -7.296875 C 7.097656 -7.367188 7.085938 -7.457031 7.109375 -7.5625 C 7.128906 -7.664062 7.179688 -7.734375 7.265625 -7.765625 C 7.484375 -7.890625 7.648438 -7.851562 7.765625 -7.65625 C 8.304688 -6.664062 9.0625 -5.882812 10.03125 -5.3125 C 11 -4.738281 12.046875 -4.453125 13.171875 -4.453125 C 14.328125 -4.453125 15.378906 -4.742188 16.328125 -5.328125 C 17.273438 -5.910156 18.023438 -6.679688 18.578125 -7.640625 C 19.128906 -8.609375 19.40625 -9.664062 19.40625 -10.8125 C 19.40625 -11.976562 19.128906 -13.035156 18.578125 -13.984375 C 18.023438 -14.941406 17.273438 -15.710938 16.328125 -16.296875 C 15.378906 -16.878906 14.328125 -17.171875 13.171875 -17.171875 C 12.046875 -17.171875 11 -16.882812 10.03125 -16.3125 C 9.0625 -15.738281 8.304688 -14.960938 7.765625 -13.984375 C 7.671875 -13.753906 7.503906 -13.703125 7.265625 -13.828125 C 7.078125 -13.960938 7.035156 -14.132812 7.140625 -14.34375 C 7.765625 -15.425781 8.613281 -16.28125 9.6875 -16.90625 C 10.757812 -17.539062 11.921875 -17.859375 13.171875 -17.859375 C 14.472656 -17.859375 15.644531 -17.535156 16.6875 -16.890625 C 17.726562 -16.253906 18.5625 -15.40625 19.1875 -14.34375 C 19.8125 -13.28125 20.125 -12.101562 20.125 -10.8125 C 20.125 -9.53125 19.8125 -8.347656 19.1875 -7.265625 C 18.5625 -6.191406 17.726562 -5.332031 16.6875 -4.6875 C 15.644531 -4.050781 14.472656 -3.734375 13.171875 -3.734375 C 11.921875 -3.734375 10.757812 -4.050781 9.6875 -4.6875 C 8.613281 -5.332031 7.765625 -6.203125 7.140625 -7.296875 Z M 7.140625 -7.296875 "/></g></g><g style="fill:#00ffff;fill-opacity:1;"><g transform="translate(160.36956, 25.648532)"><path style="stroke:none" d="M 3.109375 0 C 3.109375 0.238281 2.984375 0.359375 2.734375 0.359375 C 2.515625 0.359375 2.40625 0.238281 2.40625 0 L 2.40625 -21.546875 C 2.40625 -21.785156 2.515625 -21.90625 2.734375 -21.90625 L 11.203125 -21.90625 C 12.472656 -21.90625 13.613281 -21.59375 14.625 -20.96875 C 15.632812 -20.34375 16.441406 -19.515625 17.046875 -18.484375 C 17.648438 -17.453125 17.953125 -16.3125 17.953125 -15.0625 C 17.953125 -13.914062 17.691406 -12.847656 17.171875 -11.859375 C 16.648438 -10.878906 15.929688 -10.066406 15.015625 -9.421875 C 14.097656 -8.785156 13.066406 -8.40625 11.921875 -8.28125 L 18.171875 -0.203125 C 18.304688 -0.0234375 18.285156 0.117188 18.109375 0.234375 C 17.941406 0.398438 17.769531 0.382812 17.59375 0.1875 L 10.96875 -8.375 C 10.90625 -8.4375 10.875 -8.515625 10.875 -8.609375 C 10.875 -8.859375 10.984375 -8.984375 11.203125 -8.984375 C 12.328125 -8.984375 13.347656 -9.257812 14.265625 -9.8125 C 15.179688 -10.363281 15.90625 -11.097656 16.4375 -12.015625 C 16.96875 -12.941406 17.234375 -13.957031 17.234375 -15.0625 C 17.234375 -16.1875 16.96875 -17.207031 16.4375 -18.125 C 15.90625 -19.050781 15.179688 -19.789062 14.265625 -20.34375 C 13.347656 -20.894531 12.328125 -21.171875 11.203125 -21.171875 L 3.109375 -21.171875 Z M 9.640625 -12.59375 C 9.398438 -12.59375 9.28125 -12.703125 9.28125 -12.921875 C 9.28125 -13.140625 9.398438 -13.25 9.640625 -13.25 L 10.84375 -13.25 C 11.363281 -13.25 11.804688 -13.425781 12.171875 -13.78125 C 12.535156 -14.132812 12.71875 -14.5625 12.71875 -15.0625 C 12.71875 -15.582031 12.535156 -16.015625 12.171875 -16.359375 C 11.804688 -16.703125 11.363281 -16.875 10.84375 -16.875 L 7.046875 -16.875 C 6.828125 -16.875 6.71875 -16.988281 6.71875 -17.21875 C 6.71875 -17.445312 6.828125 -17.5625 7.046875 -17.5625 L 10.84375 -17.5625 C 11.550781 -17.5625 12.15625 -17.320312 12.65625 -16.84375 C 13.15625 -16.375 13.40625 -15.78125 13.40625 -15.0625 C 13.40625 -14.363281 13.15625 -13.773438 12.65625 -13.296875 C 12.15625 -12.828125 11.550781 -12.59375 10.84375 -12.59375 Z M 12.921875 -0.203125 C 13.066406 -0.0234375 13.046875 0.128906 12.859375 0.265625 C 12.660156 0.429688 12.488281 0.40625 12.34375 0.1875 L 7.40625 -6.453125 L 7.40625 0 C 7.40625 0.0820312 7.367188 0.160156 7.296875 0.234375 C 7.234375 0.316406 7.148438 0.359375 7.046875 0.359375 C 6.828125 0.359375 6.71875 0.238281 6.71875 0 L 6.71875 -7.46875 C 6.695312 -7.570312 6.738281 -7.671875 6.84375 -7.765625 C 7.019531 -7.890625 7.179688 -7.863281 7.328125 -7.6875 Z M 12.921875 -0.203125 "/></g></g><g style="fill:#00ffff;fill-opacity:1;"><g transform="translate(177.984766, 25.648532)"><path style="stroke:none" d="M 11.71875 -21.75 C 11.851562 -21.925781 12.023438 -21.945312 12.234375 -21.8125 C 12.410156 -21.664062 12.429688 -21.503906 12.296875 -21.328125 L 7.34375 -14.703125 C 7.207031 -14.523438 7.050781 -14.503906 6.875 -14.640625 C 6.769531 -14.703125 6.71875 -14.800781 6.71875 -14.9375 L 6.71875 -21.546875 C 6.71875 -21.765625 6.835938 -21.875 7.078125 -21.875 C 7.296875 -21.875 7.40625 -21.765625 7.40625 -21.546875 L 7.40625 -15.96875 Z M 16.953125 -21.75 C 17.097656 -21.925781 17.269531 -21.945312 17.46875 -21.8125 C 17.65625 -21.664062 17.675781 -21.503906 17.53125 -21.328125 L 10.1875 -11.234375 L 17.984375 -0.203125 C 18.128906 -0.046875 18.097656 0.109375 17.890625 0.265625 C 17.734375 0.410156 17.570312 0.382812 17.40625 0.1875 L 9.453125 -11.03125 C 9.359375 -11.164062 9.359375 -11.304688 9.453125 -11.453125 Z M 3.109375 0 C 3.109375 0.21875 2.992188 0.328125 2.765625 0.328125 C 2.523438 0.328125 2.40625 0.21875 2.40625 0 L 2.40625 -21.546875 C 2.40625 -21.765625 2.523438 -21.875 2.765625 -21.875 C 2.992188 -21.875 3.109375 -21.765625 3.109375 -21.546875 Z M 12.75 -0.203125 C 12.863281 -0.0234375 12.832031 0.128906 12.65625 0.265625 C 12.488281 0.410156 12.328125 0.382812 12.171875 0.1875 L 7.40625 -6.484375 L 7.40625 0 C 7.40625 0.21875 7.296875 0.328125 7.078125 0.328125 C 6.835938 0.328125 6.71875 0.21875 6.71875 0 L 6.71875 -7.53125 C 6.71875 -7.664062 6.769531 -7.765625 6.875 -7.828125 C 7.050781 -7.972656 7.207031 -7.941406 7.34375 -7.734375 Z M 12.75 -0.203125 "/></g></g><g style="fill:#00ffff;fill-opacity:1;"><g transform="translate(195.389189, 25.648532)"><path style="stroke:none" d="M 15.265625 -0.359375 C 15.515625 -0.359375 15.640625 -0.238281 15.640625 0 C 15.640625 0.21875 15.515625 0.328125 15.265625 0.328125 L 2.734375 0.328125 C 2.515625 0.328125 2.40625 0.21875 2.40625 0 L 2.40625 -21.546875 C 2.40625 -21.765625 2.515625 -21.875 2.734375 -21.875 C 2.984375 -21.875 3.109375 -21.765625 3.109375 -21.546875 L 3.109375 -0.359375 Z M 6.6875 -21.546875 C 6.6875 -21.765625 6.804688 -21.875 7.046875 -21.875 C 7.285156 -21.875 7.40625 -21.765625 7.40625 -21.546875 L 7.40625 -4.671875 L 15.265625 -4.671875 C 15.515625 -4.671875 15.640625 -4.550781 15.640625 -4.3125 C 15.640625 -4.082031 15.515625 -3.96875 15.265625 -3.96875 L 7.046875 -3.96875 C 6.804688 -3.96875 6.6875 -4.082031 6.6875 -4.3125 Z M 6.6875 -21.546875 "/></g></g><g style="fill:#00ffff;fill-opacity:1;"><g transform="translate(211.227795, 25.648532)"><path style="stroke:none" d="M 1.171875 -0.203125 C 1.109375 0.015625 0.957031 0.0820312 0.71875 0 C 0.644531 -0.0390625 0.585938 -0.101562 0.546875 -0.1875 C 0.503906 -0.28125 0.503906 -0.367188 0.546875 -0.453125 L 9.375 -22.109375 C 9.425781 -22.273438 9.53125 -22.359375 9.6875 -22.359375 C 9.851562 -22.359375 9.96875 -22.273438 10.03125 -22.109375 L 18.859375 -0.453125 C 18.898438 -0.367188 18.90625 -0.28125 18.875 -0.1875 C 18.84375 -0.101562 18.773438 -0.0390625 18.671875 0 C 18.429688 0.0820312 18.28125 0.015625 18.21875 -0.203125 L 9.703125 -21.09375 Z M 8.109375 -6.296875 C 7.859375 -6.296875 7.734375 -6.40625 7.734375 -6.625 C 7.734375 -6.84375 7.859375 -6.953125 8.109375 -6.953125 L 10.78125 -6.953125 L 9.375 -10.390625 C 9.289062 -10.609375 9.347656 -10.757812 9.546875 -10.84375 C 9.765625 -10.945312 9.925781 -10.878906 10.03125 -10.640625 L 11.59375 -6.78125 C 11.613281 -6.738281 11.625 -6.6875 11.625 -6.625 C 11.625 -6.40625 11.503906 -6.296875 11.265625 -6.296875 Z M 5.84375 -0.203125 C 5.78125 0.015625 5.640625 0.0820312 5.421875 0 C 5.316406 -0.0390625 5.242188 -0.101562 5.203125 -0.1875 C 5.171875 -0.28125 5.175781 -0.367188 5.21875 -0.453125 L 6.03125 -2.40625 C 6.050781 -2.550781 6.160156 -2.625 6.359375 -2.625 L 13.046875 -2.625 C 13.222656 -2.625 13.332031 -2.550781 13.375 -2.40625 L 14.1875 -0.453125 C 14.226562 -0.367188 14.226562 -0.28125 14.1875 -0.1875 C 14.144531 -0.101562 14.078125 -0.0390625 13.984375 0 C 13.773438 0.0625 13.625 -0.00390625 13.53125 -0.203125 L 12.796875 -1.953125 L 6.5625 -1.953125 Z M 5.84375 -0.203125 "/></g></g><g style="fill:#00ffff;fill-opacity:1;"><g transform="translate(229.625904, 25.648532)"><path style="stroke:none" d="M 8.40625 -0.0625 C 8.40625 0.195312 8.285156 0.328125 8.046875 0.328125 C 7.804688 0.328125 7.6875 0.195312 7.6875 -0.0625 L 7.6875 -9.515625 L 0.265625 -21.359375 C 0.128906 -21.515625 0.160156 -21.675781 0.359375 -21.84375 C 0.535156 -21.9375 0.695312 -21.894531 0.84375 -21.71875 L 8.34375 -9.828125 C 8.382812 -9.742188 8.40625 -9.679688 8.40625 -9.640625 Z M 5.515625 -21.359375 C 5.367188 -21.578125 5.410156 -21.738281 5.640625 -21.84375 C 5.816406 -21.957031 5.960938 -21.914062 6.078125 -21.71875 L 10.1875 -14.765625 L 14.28125 -21.71875 C 14.4375 -21.882812 14.609375 -21.925781 14.796875 -21.84375 C 14.972656 -21.71875 15.007812 -21.554688 14.90625 -21.359375 L 10.515625 -13.890625 C 10.429688 -13.765625 10.320312 -13.703125 10.1875 -13.703125 C 10.0625 -13.703125 9.957031 -13.765625 9.875 -13.890625 Z M 19.546875 -21.71875 C 19.691406 -21.894531 19.851562 -21.9375 20.03125 -21.84375 C 20.226562 -21.71875 20.269531 -21.554688 20.15625 -21.359375 L 12.6875 -9.515625 L 12.6875 -0.0625 C 12.6875 0.195312 12.570312 0.328125 12.34375 0.328125 C 12.125 0.328125 12.015625 0.195312 12.015625 -0.0625 L 12.015625 -9.609375 C 12.015625 -9.691406 12.023438 -9.765625 12.046875 -9.828125 Z M 19.546875 -21.71875 "/></g></g><g style="fill:#00ffff;fill-opacity:1;"><g transform="translate(248.80696, 25.648532)"><path style="stroke:none" d="M 13.921875 -0.359375 C 14.140625 -0.359375 14.25 -0.238281 14.25 0 C 14.25 0.21875 14.140625 0.328125 13.921875 0.328125 L 2.765625 0.328125 C 2.523438 0.328125 2.40625 0.21875 2.40625 0 L 2.40625 -21.546875 C 2.40625 -21.765625 2.523438 -21.875 2.765625 -21.875 L 13.921875 -21.875 C 14.140625 -21.875 14.25 -21.765625 14.25 -21.546875 C 14.25 -21.296875 14.140625 -21.171875 13.921875 -21.171875 L 3.109375 -21.171875 L 3.109375 -0.359375 Z M 13.921875 -17.5625 C 14.140625 -17.5625 14.25 -17.453125 14.25 -17.234375 C 14.25 -16.992188 14.140625 -16.875 13.921875 -16.875 L 7.40625 -16.875 L 7.40625 -13.28125 L 11.90625 -13.28125 C 12.144531 -13.28125 12.265625 -13.160156 12.265625 -12.921875 C 12.265625 -12.679688 12.144531 -12.5625 11.90625 -12.5625 L 7.078125 -12.5625 C 6.835938 -12.5625 6.71875 -12.679688 6.71875 -12.921875 L 6.71875 -17.234375 C 6.71875 -17.453125 6.835938 -17.5625 7.078125 -17.5625 Z M 11.90625 -8.984375 C 12.144531 -8.984375 12.265625 -8.859375 12.265625 -8.609375 C 12.265625 -8.390625 12.144531 -8.28125 11.90625 -8.28125 L 7.40625 -8.28125 L 7.40625 -4.671875 L 13.921875 -4.671875 C 14.140625 -4.671875 14.25 -4.550781 14.25 -4.3125 C 14.25 -4.082031 14.140625 -3.96875 13.921875 -3.96875 L 7.078125 -3.96875 C 6.835938 -3.96875 6.71875 -4.082031 6.71875 -4.3125 L 6.71875 -8.609375 C 6.71875 -8.859375 6.835938 -8.984375 7.078125 -8.984375 Z M 11.90625 -8.984375 "/></g></g><g style="fill:#00ffff;fill-opacity:1;"><g transform="translate(263.59164, 25.648532)"><path style="stroke:none" d="M 3.109375 0 C 3.109375 0.238281 2.984375 0.359375 2.734375 0.359375 C 2.515625 0.359375 2.40625 0.238281 2.40625 0 L 2.40625 -21.546875 C 2.40625 -21.785156 2.515625 -21.90625 2.734375 -21.90625 L 11.203125 -21.90625 C 12.472656 -21.90625 13.613281 -21.59375 14.625 -20.96875 C 15.632812 -20.34375 16.441406 -19.515625 17.046875 -18.484375 C 17.648438 -17.453125 17.953125 -16.3125 17.953125 -15.0625 C 17.953125 -13.914062 17.691406 -12.847656 17.171875 -11.859375 C 16.648438 -10.878906 15.929688 -10.066406 15.015625 -9.421875 C 14.097656 -8.785156 13.066406 -8.40625 11.921875 -8.28125 L 18.171875 -0.203125 C 18.304688 -0.0234375 18.285156 0.117188 18.109375 0.234375 C 17.941406 0.398438 17.769531 0.382812 17.59375 0.1875 L 10.96875 -8.375 C 10.90625 -8.4375 10.875 -8.515625 10.875 -8.609375 C 10.875 -8.859375 10.984375 -8.984375 11.203125 -8.984375 C 12.328125 -8.984375 13.347656 -9.257812 14.265625 -9.8125 C 15.179688 -10.363281 15.90625 -11.097656 16.4375 -12.015625 C 16.96875 -12.941406 17.234375 -13.957031 17.234375 -15.0625 C 17.234375 -16.1875 16.96875 -17.207031 16.4375 -18.125 C 15.90625 -19.050781 15.179688 -19.789062 14.265625 -20.34375 C 13.347656 -20.894531 12.328125 -21.171875 11.203125 -21.171875 L 3.109375 -21.171875 Z M 9.640625 -12.59375 C 9.398438 -12.59375 9.28125 -12.703125 9.28125 -12.921875 C 9.28125 -13.140625 9.398438 -13.25 9.640625 -13.25 L 10.84375 -13.25 C 11.363281 -13.25 11.804688 -13.425781 12.171875 -13.78125 C 12.535156 -14.132812 12.71875 -14.5625 12.71875 -15.0625 C 12.71875 -15.582031 12.535156 -16.015625 12.171875 -16.359375 C 11.804688 -16.703125 11.363281 -16.875 10.84375 -16.875 L 7.046875 -16.875 C 6.828125 -16.875 6.71875 -16.988281 6.71875 -17.21875 C 6.71875 -17.445312 6.828125 -17.5625 7.046875 -17.5625 L 10.84375 -17.5625 C 11.550781 -17.5625 12.15625 -17.320312 12.65625 -16.84375 C 13.15625 -16.375 13.40625 -15.78125 13.40625 -15.0625 C 13.40625 -14.363281 13.15625 -13.773438 12.65625 -13.296875 C 12.15625 -12.828125 11.550781 -12.59375 10.84375 -12.59375 Z M 12.921875 -0.203125 C 13.066406 -0.0234375 13.046875 0.128906 12.859375 0.265625 C 12.660156 0.429688 12.488281 0.40625 12.34375 0.1875 L 7.40625 -6.453125 L 7.40625 0 C 7.40625 0.0820312 7.367188 0.160156 7.296875 0.234375 C 7.234375 0.316406 7.148438 0.359375 7.046875 0.359375 C 6.828125 0.359375 6.71875 0.238281 6.71875 0 L 6.71875 -7.46875 C 6.695312 -7.570312 6.738281 -7.671875 6.84375 -7.765625 C 7.019531 -7.890625 7.179688 -7.863281 7.328125 -7.6875 Z M 12.921875 -0.203125 "/></g></g><g style="fill:#1e5175;fill-opacity:1;"><g transform="translate(41.600957, 24.761037)"><path style="stroke:none" d="M 13.5625 -21.0625 C 13.78125 -20.976562 13.847656 -20.828125 13.765625 -20.609375 C 13.679688 -20.398438 13.53125 -20.335938 13.3125 -20.421875 C 12.25 -20.804688 11.148438 -21.070312 10.015625 -21.21875 C 8.878906 -21.375 7.796875 -21.328125 6.765625 -21.078125 C 5.734375 -20.828125 4.8125 -20.269531 4 -19.40625 C 3.363281 -18.71875 2.910156 -17.875 2.640625 -16.875 C 2.367188 -15.882812 2.34375 -14.878906 2.5625 -13.859375 C 2.78125 -12.847656 3.320312 -11.953125 4.1875 -11.171875 C 4.925781 -10.535156 5.679688 -10.050781 6.453125 -9.71875 C 7.234375 -9.382812 7.957031 -9.09375 8.625 -8.84375 C 9.300781 -8.59375 9.851562 -8.289062 10.28125 -7.9375 C 10.71875 -7.582031 10.957031 -7.054688 11 -6.359375 C 11.039062 -5.648438 10.789062 -5.066406 10.25 -4.609375 C 9.71875 -4.148438 9.101562 -3.898438 8.40625 -3.859375 C 7.457031 -3.796875 6.414062 -3.898438 5.28125 -4.171875 C 4.144531 -4.441406 3.097656 -4.929688 2.140625 -5.640625 C 1.941406 -5.773438 1.910156 -5.929688 2.046875 -6.109375 C 2.191406 -6.296875 2.351562 -6.328125 2.53125 -6.203125 C 3.007812 -5.878906 3.578125 -5.578125 4.234375 -5.296875 C 4.898438 -5.015625 5.585938 -4.800781 6.296875 -4.65625 C 7.015625 -4.519531 7.6875 -4.484375 8.3125 -4.546875 C 8.9375 -4.609375 9.441406 -4.8125 9.828125 -5.15625 C 10.179688 -5.488281 10.335938 -5.882812 10.296875 -6.34375 C 10.265625 -6.8125 10.078125 -7.207031 9.734375 -7.53125 C 9.453125 -7.769531 9 -8.003906 8.375 -8.234375 C 7.75 -8.460938 7.0625 -8.742188 6.3125 -9.078125 C 5.5625 -9.410156 4.832031 -9.832031 4.125 -10.34375 C 3.425781 -10.851562 2.847656 -11.488281 2.390625 -12.25 C 1.941406 -13.019531 1.71875 -13.96875 1.71875 -15.09375 C 1.71875 -16.65625 2.085938 -17.984375 2.828125 -19.078125 C 3.578125 -20.171875 4.59375 -20.96875 5.875 -21.46875 C 7.15625 -21.976562 8.601562 -22.125 10.21875 -21.90625 C 10.632812 -21.84375 11.117188 -21.742188 11.671875 -21.609375 C 12.222656 -21.484375 12.851562 -21.300781 13.5625 -21.0625 Z M 1.59375 -1.109375 C 1.394531 -1.210938 1.351562 -1.363281 1.46875 -1.5625 C 1.59375 -1.769531 1.753906 -1.820312 1.953125 -1.71875 C 2.816406 -1.269531 3.75 -0.90625 4.75 -0.625 C 5.757812 -0.34375 6.765625 -0.191406 7.765625 -0.171875 C 8.773438 -0.160156 9.726562 -0.300781 10.625 -0.59375 C 11.53125 -0.882812 12.316406 -1.359375 12.984375 -2.015625 C 13.671875 -2.722656 14.15625 -3.5625 14.4375 -4.53125 C 14.726562 -5.507812 14.765625 -6.503906 14.546875 -7.515625 C 14.328125 -8.523438 13.785156 -9.425781 12.921875 -10.21875 C 12.179688 -10.914062 11.414062 -11.441406 10.625 -11.796875 C 9.84375 -12.148438 9.113281 -12.453125 8.4375 -12.703125 C 7.769531 -12.953125 7.210938 -13.25 6.765625 -13.59375 C 6.328125 -13.945312 6.09375 -14.46875 6.0625 -15.15625 C 6.039062 -15.851562 6.265625 -16.429688 6.734375 -16.890625 C 7.203125 -17.359375 7.78125 -17.601562 8.46875 -17.625 C 9.832031 -17.707031 11.347656 -17.40625 13.015625 -16.71875 C 13.234375 -16.632812 13.296875 -16.488281 13.203125 -16.28125 C 13.117188 -16.070312 12.96875 -16.007812 12.75 -16.09375 C 12.21875 -16.3125 11.539062 -16.523438 10.71875 -16.734375 C 9.894531 -16.941406 9.132812 -17.007812 8.4375 -16.9375 C 7.988281 -16.875 7.585938 -16.707031 7.234375 -16.4375 C 6.890625 -16.164062 6.726562 -15.769531 6.75 -15.25 C 6.75 -14.738281 6.96875 -14.316406 7.40625 -13.984375 C 7.6875 -13.773438 8.132812 -13.550781 8.75 -13.3125 C 9.363281 -13.070312 10.046875 -12.773438 10.796875 -12.421875 C 11.546875 -12.078125 12.269531 -11.640625 12.96875 -11.109375 C 13.664062 -10.585938 14.238281 -9.941406 14.6875 -9.171875 C 15.132812 -8.398438 15.359375 -7.472656 15.359375 -6.390625 C 15.359375 -5.023438 15.082031 -3.859375 14.53125 -2.890625 C 13.976562 -1.929688 13.21875 -1.171875 12.25 -0.609375 C 11.289062 -0.046875 10.1875 0.296875 8.9375 0.421875 C 7.695312 0.546875 6.394531 0.445312 5.03125 0.125 C 4.488281 0 3.929688 -0.160156 3.359375 -0.359375 C 2.785156 -0.554688 2.195312 -0.804688 1.59375 -1.109375 Z M 1.59375 -1.109375 "/></g></g><g style="fill:#1e5175;fill-opacity:1;"><g transform="translate(57.078215, 24.761037)"><path style="stroke:none" d="M 6.390625 -21.328125 C 6.242188 -21.503906 6.265625 -21.660156 6.453125 -21.796875 C 6.648438 -21.941406 6.804688 -21.914062 6.921875 -21.71875 L 15.671875 -9.25 L 15.671875 -21.515625 C 15.671875 -21.753906 15.789062 -21.875 16.03125 -21.875 C 16.269531 -21.875 16.390625 -21.753906 16.390625 -21.515625 L 16.390625 -8.140625 C 16.390625 -7.972656 16.300781 -7.859375 16.125 -7.796875 C 15.957031 -7.742188 15.820312 -7.785156 15.71875 -7.921875 Z M 3.109375 0 C 3.109375 0.21875 2.988281 0.328125 2.75 0.328125 C 2.519531 0.328125 2.40625 0.21875 2.40625 0 L 2.40625 -21.515625 C 2.40625 -21.753906 2.519531 -21.875 2.75 -21.875 C 2.988281 -21.875 3.109375 -21.753906 3.109375 -21.515625 Z M 20.671875 0 C 20.671875 0.21875 20.546875 0.328125 20.296875 0.328125 C 20.054688 0.328125 19.9375 0.21875 19.9375 0 L 19.9375 -21.515625 C 19.9375 -21.753906 20.054688 -21.875 20.296875 -21.875 C 20.546875 -21.875 20.671875 -21.753906 20.671875 -21.515625 Z M 16.71875 -0.203125 C 16.84375 -0.00390625 16.8125 0.15625 16.625 0.28125 C 16.445312 0.414062 16.273438 0.390625 16.109375 0.203125 L 7.4375 -12.296875 L 7.4375 0 C 7.4375 0.21875 7.316406 0.328125 7.078125 0.328125 C 6.835938 0.328125 6.71875 0.21875 6.71875 0 L 6.71875 -13.40625 C 6.71875 -13.5625 6.796875 -13.671875 6.953125 -13.734375 C 7.117188 -13.796875 7.257812 -13.753906 7.375 -13.609375 Z M 16.71875 -0.203125 "/></g></g><g style="fill:#1e5175;fill-opacity:1;"><g transform="translate(79.089774, 24.761037)"><path style="stroke:none" d="M 13.921875 -0.359375 C 14.140625 -0.359375 14.25 -0.238281 14.25 0 C 14.25 0.21875 14.140625 0.328125 13.921875 0.328125 L 2.765625 0.328125 C 2.523438 0.328125 2.40625 0.21875 2.40625 0 L 2.40625 -21.546875 C 2.40625 -21.765625 2.523438 -21.875 2.765625 -21.875 L 13.921875 -21.875 C 14.140625 -21.875 14.25 -21.765625 14.25 -21.546875 C 14.25 -21.296875 14.140625 -21.171875 13.921875 -21.171875 L 3.109375 -21.171875 L 3.109375 -0.359375 Z M 13.921875 -17.5625 C 14.140625 -17.5625 14.25 -17.453125 14.25 -17.234375 C 14.25 -16.992188 14.140625 -16.875 13.921875 -16.875 L 7.40625 -16.875 L 7.40625 -13.28125 L 11.90625 -13.28125 C 12.144531 -13.28125 12.265625 -13.160156 12.265625 -12.921875 C 12.265625 -12.679688 12.144531 -12.5625 11.90625 -12.5625 L 7.078125 -12.5625 C 6.835938 -12.5625 6.71875 -12.679688 6.71875 -12.921875 L 6.71875 -17.234375 C 6.71875 -17.453125 6.835938 -17.5625 7.078125 -17.5625 Z M 11.90625 -8.984375 C 12.144531 -8.984375 12.265625 -8.859375 12.265625 -8.609375 C 12.265625 -8.390625 12.144531 -8.28125 11.90625 -8.28125 L 7.40625 -8.28125 L 7.40625 -4.671875 L 13.921875 -4.671875 C 14.140625 -4.671875 14.25 -4.550781 14.25 -4.3125 C 14.25 -4.082031 14.140625 -3.96875 13.921875 -3.96875 L 7.078125 -3.96875 C 6.835938 -3.96875 6.71875 -4.082031 6.71875 -4.3125 L 6.71875 -8.609375 C 6.71875 -8.859375 6.835938 -8.984375 7.078125 -8.984375 Z M 11.90625 -8.984375 "/></g></g><g style="fill:#1e5175;fill-opacity:1;"><g transform="translate(93.874455, 24.761037)"><path style="stroke:none" d="M 0.9375 -21.171875 C 0.71875 -21.171875 0.609375 -21.285156 0.609375 -21.515625 C 0.609375 -21.734375 0.71875 -21.84375 0.9375 -21.84375 L 15.96875 -21.84375 C 16.207031 -21.84375 16.328125 -21.734375 16.328125 -21.515625 C 16.328125 -21.285156 16.207031 -21.171875 15.96875 -21.171875 Z M 0.9375 -16.84375 C 0.71875 -16.84375 0.609375 -16.972656 0.609375 -17.234375 C 0.609375 -17.453125 0.71875 -17.5625 0.9375 -17.5625 L 6.328125 -17.5625 C 6.546875 -17.5625 6.65625 -17.453125 6.65625 -17.234375 L 6.65625 0 C 6.65625 0.21875 6.546875 0.328125 6.328125 0.328125 C 6.085938 0.328125 5.96875 0.21875 5.96875 0 L 5.96875 -16.84375 Z M 16 -17.5625 C 16.21875 -17.5625 16.328125 -17.453125 16.328125 -17.234375 C 16.328125 -16.972656 16.21875 -16.84375 16 -16.84375 L 10.9375 -16.84375 L 10.9375 0 C 10.9375 0.21875 10.828125 0.328125 10.609375 0.328125 C 10.378906 0.328125 10.265625 0.21875 10.265625 0 L 10.265625 -17.234375 C 10.265625 -17.453125 10.378906 -17.5625 10.609375 -17.5625 Z M 16 -17.5625 "/></g></g><g style="fill:#1e5175;fill-opacity:1;"><g transform="translate(109.953952, 24.761037)"><path style="stroke:none" d="M 26.296875 -21.421875 C 26.378906 -21.660156 26.53125 -21.726562 26.75 -21.625 C 26.925781 -21.53125 26.988281 -21.378906 26.9375 -21.171875 L 18.078125 0.578125 C 17.972656 0.753906 17.820312 0.8125 17.625 0.75 C 17.519531 0.726562 17.445312 0.671875 17.40625 0.578125 L 13.5625 -8.890625 L 9.734375 0.578125 C 9.628906 0.753906 9.476562 0.8125 9.28125 0.75 C 9.175781 0.726562 9.101562 0.671875 9.0625 0.578125 L 0.234375 -21.171875 C 0.117188 -21.359375 0.179688 -21.507812 0.421875 -21.625 C 0.503906 -21.664062 0.585938 -21.664062 0.671875 -21.625 C 0.765625 -21.582031 0.820312 -21.515625 0.84375 -21.421875 L 9.421875 -0.484375 L 13.25 -9.90625 C 13.3125 -10.050781 13.421875 -10.128906 13.578125 -10.140625 C 13.742188 -10.148438 13.859375 -10.070312 13.921875 -9.90625 L 17.75 -0.484375 Z M 4.90625 -21.171875 C 4.84375 -21.378906 4.90625 -21.53125 5.09375 -21.625 C 5.1875 -21.664062 5.285156 -21.664062 5.390625 -21.625 C 5.492188 -21.582031 5.554688 -21.515625 5.578125 -21.421875 L 9.421875 -12.015625 L 13.25 -21.421875 C 13.289062 -21.515625 13.359375 -21.582031 13.453125 -21.625 C 13.546875 -21.664062 13.628906 -21.664062 13.703125 -21.625 C 13.828125 -21.550781 13.898438 -21.484375 13.921875 -21.421875 L 17.75 -12.015625 L 21.59375 -21.421875 C 21.632812 -21.515625 21.695312 -21.582031 21.78125 -21.625 C 21.863281 -21.664062 21.941406 -21.664062 22.015625 -21.625 C 22.242188 -21.53125 22.328125 -21.378906 22.265625 -21.171875 L 18.078125 -10.9375 C 18.015625 -10.789062 17.898438 -10.71875 17.734375 -10.71875 C 17.578125 -10.71875 17.46875 -10.789062 17.40625 -10.9375 L 13.5625 -20.390625 L 9.734375 -10.9375 C 9.671875 -10.789062 9.554688 -10.71875 9.390625 -10.71875 C 9.234375 -10.71875 9.125 -10.789062 9.0625 -10.9375 Z M 4.90625 -21.171875 "/></g></g><g style="fill:#1e5175;fill-opacity:1;"><g transform="translate(136.030626, 24.761037)"><path style="stroke:none" d="M 24.3125 -14.28125 C 24.351562 -14.195312 24.347656 -14.101562 24.296875 -14 C 24.242188 -13.90625 24.164062 -13.847656 24.0625 -13.828125 C 23.820312 -13.765625 23.675781 -13.84375 23.625 -14.0625 C 23.132812 -15.570312 22.367188 -16.894531 21.328125 -18.03125 C 20.285156 -19.164062 19.0625 -20.039062 17.65625 -20.65625 C 16.25 -21.28125 14.753906 -21.59375 13.171875 -21.59375 C 11.035156 -21.59375 9.15625 -21.128906 7.53125 -20.203125 C 5.90625 -19.285156 4.632812 -18.015625 3.71875 -16.390625 C 2.800781 -14.765625 2.34375 -12.90625 2.34375 -10.8125 C 2.34375 -8.726562 2.800781 -6.867188 3.71875 -5.234375 C 4.632812 -3.609375 5.90625 -2.328125 7.53125 -1.390625 C 9.15625 -0.460938 11.035156 0 13.171875 0 C 14.753906 0 16.25 -0.3125 17.65625 -0.9375 C 19.0625 -1.570312 20.285156 -2.457031 21.328125 -3.59375 C 22.367188 -4.726562 23.132812 -6.050781 23.625 -7.5625 C 23.675781 -7.78125 23.820312 -7.859375 24.0625 -7.796875 C 24.3125 -7.722656 24.394531 -7.570312 24.3125 -7.34375 C 23.8125 -5.738281 23 -4.328125 21.875 -3.109375 C 20.75 -1.898438 19.4375 -0.957031 17.9375 -0.28125 C 16.4375 0.382812 14.847656 0.71875 13.171875 0.71875 C 11.460938 0.71875 9.90625 0.429688 8.5 -0.140625 C 7.09375 -0.710938 5.875 -1.515625 4.84375 -2.546875 C 3.820312 -3.578125 3.035156 -4.796875 2.484375 -6.203125 C 1.929688 -7.609375 1.65625 -9.144531 1.65625 -10.8125 C 1.65625 -12.476562 1.929688 -14.007812 2.484375 -15.40625 C 3.035156 -16.800781 3.820312 -18.015625 4.84375 -19.046875 C 5.875 -20.085938 7.09375 -20.894531 8.5 -21.46875 C 9.90625 -22.039062 11.460938 -22.328125 13.171875 -22.328125 C 14.847656 -22.328125 16.4375 -21.988281 17.9375 -21.3125 C 19.4375 -20.632812 20.75 -19.691406 21.875 -18.484375 C 23 -17.285156 23.8125 -15.882812 24.3125 -14.28125 Z M 7.140625 -7.296875 C 7.097656 -7.367188 7.085938 -7.457031 7.109375 -7.5625 C 7.128906 -7.664062 7.179688 -7.734375 7.265625 -7.765625 C 7.484375 -7.890625 7.648438 -7.851562 7.765625 -7.65625 C 8.304688 -6.664062 9.0625 -5.882812 10.03125 -5.3125 C 11 -4.738281 12.046875 -4.453125 13.171875 -4.453125 C 14.328125 -4.453125 15.378906 -4.742188 16.328125 -5.328125 C 17.273438 -5.910156 18.023438 -6.679688 18.578125 -7.640625 C 19.128906 -8.609375 19.40625 -9.664062 19.40625 -10.8125 C 19.40625 -11.976562 19.128906 -13.035156 18.578125 -13.984375 C 18.023438 -14.941406 17.273438 -15.710938 16.328125 -16.296875 C 15.378906 -16.878906 14.328125 -17.171875 13.171875 -17.171875 C 12.046875 -17.171875 11 -16.882812 10.03125 -16.3125 C 9.0625 -15.738281 8.304688 -14.960938 7.765625 -13.984375 C 7.671875 -13.753906 7.503906 -13.703125 7.265625 -13.828125 C 7.078125 -13.960938 7.035156 -14.132812 7.140625 -14.34375 C 7.765625 -15.425781 8.613281 -16.28125 9.6875 -16.90625 C 10.757812 -17.539062 11.921875 -17.859375 13.171875 -17.859375 C 14.472656 -17.859375 15.644531 -17.535156 16.6875 -16.890625 C 17.726562 -16.253906 18.5625 -15.40625 19.1875 -14.34375 C 19.8125 -13.28125 20.125 -12.101562 20.125 -10.8125 C 20.125 -9.53125 19.8125 -8.347656 19.1875 -7.265625 C 18.5625 -6.191406 17.726562 -5.332031 16.6875 -4.6875 C 15.644531 -4.050781 14.472656 -3.734375 13.171875 -3.734375 C 11.921875 -3.734375 10.757812 -4.050781 9.6875 -4.6875 C 8.613281 -5.332031 7.765625 -6.203125 7.140625 -7.296875 Z M 7.140625 -7.296875 "/></g></g><g style="fill:#1e5175;fill-opacity:1;"><g transform="translate(160.902821, 24.761037)"><path style="stroke:none" d="M 3.109375 0 C 3.109375 0.238281 2.984375 0.359375 2.734375 0.359375 C 2.515625 0.359375 2.40625 0.238281 2.40625 0 L 2.40625 -21.546875 C 2.40625 -21.785156 2.515625 -21.90625 2.734375 -21.90625 L 11.203125 -21.90625 C 12.472656 -21.90625 13.613281 -21.59375 14.625 -20.96875 C 15.632812 -20.34375 16.441406 -19.515625 17.046875 -18.484375 C 17.648438 -17.453125 17.953125 -16.3125 17.953125 -15.0625 C 17.953125 -13.914062 17.691406 -12.847656 17.171875 -11.859375 C 16.648438 -10.878906 15.929688 -10.066406 15.015625 -9.421875 C 14.097656 -8.785156 13.066406 -8.40625 11.921875 -8.28125 L 18.171875 -0.203125 C 18.304688 -0.0234375 18.285156 0.117188 18.109375 0.234375 C 17.941406 0.398438 17.769531 0.382812 17.59375 0.1875 L 10.96875 -8.375 C 10.90625 -8.4375 10.875 -8.515625 10.875 -8.609375 C 10.875 -8.859375 10.984375 -8.984375 11.203125 -8.984375 C 12.328125 -8.984375 13.347656 -9.257812 14.265625 -9.8125 C 15.179688 -10.363281 15.90625 -11.097656 16.4375 -12.015625 C 16.96875 -12.941406 17.234375 -13.957031 17.234375 -15.0625 C 17.234375 -16.1875 16.96875 -17.207031 16.4375 -18.125 C 15.90625 -19.050781 15.179688 -19.789062 14.265625 -20.34375 C 13.347656 -20.894531 12.328125 -21.171875 11.203125 -21.171875 L 3.109375 -21.171875 Z M 9.640625 -12.59375 C 9.398438 -12.59375 9.28125 -12.703125 9.28125 -12.921875 C 9.28125 -13.140625 9.398438 -13.25 9.640625 -13.25 L 10.84375 -13.25 C 11.363281 -13.25 11.804688 -13.425781 12.171875 -13.78125 C 12.535156 -14.132812 12.71875 -14.5625 12.71875 -15.0625 C 12.71875 -15.582031 12.535156 -16.015625 12.171875 -16.359375 C 11.804688 -16.703125 11.363281 -16.875 10.84375 -16.875 L 7.046875 -16.875 C 6.828125 -16.875 6.71875 -16.988281 6.71875 -17.21875 C 6.71875 -17.445312 6.828125 -17.5625 7.046875 -17.5625 L 10.84375 -17.5625 C 11.550781 -17.5625 12.15625 -17.320312 12.65625 -16.84375 C 13.15625 -16.375 13.40625 -15.78125 13.40625 -15.0625 C 13.40625 -14.363281 13.15625 -13.773438 12.65625 -13.296875 C 12.15625 -12.828125 11.550781 -12.59375 10.84375 -12.59375 Z M 12.921875 -0.203125 C 13.066406 -0.0234375 13.046875 0.128906 12.859375 0.265625 C 12.660156 0.429688 12.488281 0.40625 12.34375 0.1875 L 7.40625 -6.453125 L 7.40625 0 C 7.40625 0.0820312 7.367188 0.160156 7.296875 0.234375 C 7.234375 0.316406 7.148438 0.359375 7.046875 0.359375 C 6.828125 0.359375 6.71875 0.238281 6.71875 0 L 6.71875 -7.46875 C 6.695312 -7.570312 6.738281 -7.671875 6.84375 -7.765625 C 7.019531 -7.890625 7.179688 -7.863281 7.328125 -7.6875 Z M 12.921875 -0.203125 "/></g></g><g style="fill:#1e5175;fill-opacity:1;"><g transform="translate(178.518026, 24.761037)"><path style="stroke:none" d="M 11.71875 -21.75 C 11.851562 -21.925781 12.023438 -21.945312 12.234375 -21.8125 C 12.410156 -21.664062 12.429688 -21.503906 12.296875 -21.328125 L 7.34375 -14.703125 C 7.207031 -14.523438 7.050781 -14.503906 6.875 -14.640625 C 6.769531 -14.703125 6.71875 -14.800781 6.71875 -14.9375 L 6.71875 -21.546875 C 6.71875 -21.765625 6.835938 -21.875 7.078125 -21.875 C 7.296875 -21.875 7.40625 -21.765625 7.40625 -21.546875 L 7.40625 -15.96875 Z M 16.953125 -21.75 C 17.097656 -21.925781 17.269531 -21.945312 17.46875 -21.8125 C 17.65625 -21.664062 17.675781 -21.503906 17.53125 -21.328125 L 10.1875 -11.234375 L 17.984375 -0.203125 C 18.128906 -0.046875 18.097656 0.109375 17.890625 0.265625 C 17.734375 0.410156 17.570312 0.382812 17.40625 0.1875 L 9.453125 -11.03125 C 9.359375 -11.164062 9.359375 -11.304688 9.453125 -11.453125 Z M 3.109375 0 C 3.109375 0.21875 2.992188 0.328125 2.765625 0.328125 C 2.523438 0.328125 2.40625 0.21875 2.40625 0 L 2.40625 -21.546875 C 2.40625 -21.765625 2.523438 -21.875 2.765625 -21.875 C 2.992188 -21.875 3.109375 -21.765625 3.109375 -21.546875 Z M 12.75 -0.203125 C 12.863281 -0.0234375 12.832031 0.128906 12.65625 0.265625 C 12.488281 0.410156 12.328125 0.382812 12.171875 0.1875 L 7.40625 -6.484375 L 7.40625 0 C 7.40625 0.21875 7.296875 0.328125 7.078125 0.328125 C 6.835938 0.328125 6.71875 0.21875 6.71875 0 L 6.71875 -7.53125 C 6.71875 -7.664062 6.769531 -7.765625 6.875 -7.828125 C 7.050781 -7.972656 7.207031 -7.941406 7.34375 -7.734375 Z M 12.75 -0.203125 "/></g></g><g style="fill:#1e5175;fill-opacity:1;"><g transform="translate(195.92245, 24.761037)"><path style="stroke:none" d="M 15.265625 -0.359375 C 15.515625 -0.359375 15.640625 -0.238281 15.640625 0 C 15.640625 0.21875 15.515625 0.328125 15.265625 0.328125 L 2.734375 0.328125 C 2.515625 0.328125 2.40625 0.21875 2.40625 0 L 2.40625 -21.546875 C 2.40625 -21.765625 2.515625 -21.875 2.734375 -21.875 C 2.984375 -21.875 3.109375 -21.765625 3.109375 -21.546875 L 3.109375 -0.359375 Z M 6.6875 -21.546875 C 6.6875 -21.765625 6.804688 -21.875 7.046875 -21.875 C 7.285156 -21.875 7.40625 -21.765625 7.40625 -21.546875 L 7.40625 -4.671875 L 15.265625 -4.671875 C 15.515625 -4.671875 15.640625 -4.550781 15.640625 -4.3125 C 15.640625 -4.082031 15.515625 -3.96875 15.265625 -3.96875 L 7.046875 -3.96875 C 6.804688 -3.96875 6.6875 -4.082031 6.6875 -4.3125 Z M 6.6875 -21.546875 "/></g></g><g style="fill:#1e5175;fill-opacity:1;"><g transform="translate(211.761055, 24.761037)"><path style="stroke:none" d="M 1.171875 -0.203125 C 1.109375 0.015625 0.957031 0.0820312 0.71875 0 C 0.644531 -0.0390625 0.585938 -0.101562 0.546875 -0.1875 C 0.503906 -0.28125 0.503906 -0.367188 0.546875 -0.453125 L 9.375 -22.109375 C 9.425781 -22.273438 9.53125 -22.359375 9.6875 -22.359375 C 9.851562 -22.359375 9.96875 -22.273438 10.03125 -22.109375 L 18.859375 -0.453125 C 18.898438 -0.367188 18.90625 -0.28125 18.875 -0.1875 C 18.84375 -0.101562 18.773438 -0.0390625 18.671875 0 C 18.429688 0.0820312 18.28125 0.015625 18.21875 -0.203125 L 9.703125 -21.09375 Z M 8.109375 -6.296875 C 7.859375 -6.296875 7.734375 -6.40625 7.734375 -6.625 C 7.734375 -6.84375 7.859375 -6.953125 8.109375 -6.953125 L 10.78125 -6.953125 L 9.375 -10.390625 C 9.289062 -10.609375 9.347656 -10.757812 9.546875 -10.84375 C 9.765625 -10.945312 9.925781 -10.878906 10.03125 -10.640625 L 11.59375 -6.78125 C 11.613281 -6.738281 11.625 -6.6875 11.625 -6.625 C 11.625 -6.40625 11.503906 -6.296875 11.265625 -6.296875 Z M 5.84375 -0.203125 C 5.78125 0.015625 5.640625 0.0820312 5.421875 0 C 5.316406 -0.0390625 5.242188 -0.101562 5.203125 -0.1875 C 5.171875 -0.28125 5.175781 -0.367188 5.21875 -0.453125 L 6.03125 -2.40625 C 6.050781 -2.550781 6.160156 -2.625 6.359375 -2.625 L 13.046875 -2.625 C 13.222656 -2.625 13.332031 -2.550781 13.375 -2.40625 L 14.1875 -0.453125 C 14.226562 -0.367188 14.226562 -0.28125 14.1875 -0.1875 C 14.144531 -0.101562 14.078125 -0.0390625 13.984375 0 C 13.773438 0.0625 13.625 -0.00390625 13.53125 -0.203125 L 12.796875 -1.953125 L 6.5625 -1.953125 Z M 5.84375 -0.203125 "/></g></g><g style="fill:#1e5175;fill-opacity:1;"><g transform="translate(230.159164, 24.761037)"><path style="stroke:none" d="M 8.40625 -0.0625 C 8.40625 0.195312 8.285156 0.328125 8.046875 0.328125 C 7.804688 0.328125 7.6875 0.195312 7.6875 -0.0625 L 7.6875 -9.515625 L 0.265625 -21.359375 C 0.128906 -21.515625 0.160156 -21.675781 0.359375 -21.84375 C 0.535156 -21.9375 0.695312 -21.894531 0.84375 -21.71875 L 8.34375 -9.828125 C 8.382812 -9.742188 8.40625 -9.679688 8.40625 -9.640625 Z M 5.515625 -21.359375 C 5.367188 -21.578125 5.410156 -21.738281 5.640625 -21.84375 C 5.816406 -21.957031 5.960938 -21.914062 6.078125 -21.71875 L 10.1875 -14.765625 L 14.28125 -21.71875 C 14.4375 -21.882812 14.609375 -21.925781 14.796875 -21.84375 C 14.972656 -21.71875 15.007812 -21.554688 14.90625 -21.359375 L 10.515625 -13.890625 C 10.429688 -13.765625 10.320312 -13.703125 10.1875 -13.703125 C 10.0625 -13.703125 9.957031 -13.765625 9.875 -13.890625 Z M 19.546875 -21.71875 C 19.691406 -21.894531 19.851562 -21.9375 20.03125 -21.84375 C 20.226562 -21.71875 20.269531 -21.554688 20.15625 -21.359375 L 12.6875 -9.515625 L 12.6875 -0.0625 C 12.6875 0.195312 12.570312 0.328125 12.34375 0.328125 C 12.125 0.328125 12.015625 0.195312 12.015625 -0.0625 L 12.015625 -9.609375 C 12.015625 -9.691406 12.023438 -9.765625 12.046875 -9.828125 Z M 19.546875 -21.71875 "/></g></g><g style="fill:#1e5175;fill-opacity:1;"><g transform="translate(249.340221, 24.761037)"><path style="stroke:none" d="M 13.921875 -0.359375 C 14.140625 -0.359375 14.25 -0.238281 14.25 0 C 14.25 0.21875 14.140625 0.328125 13.921875 0.328125 L 2.765625 0.328125 C 2.523438 0.328125 2.40625 0.21875 2.40625 0 L 2.40625 -21.546875 C 2.40625 -21.765625 2.523438 -21.875 2.765625 -21.875 L 13.921875 -21.875 C 14.140625 -21.875 14.25 -21.765625 14.25 -21.546875 C 14.25 -21.296875 14.140625 -21.171875 13.921875 -21.171875 L 3.109375 -21.171875 L 3.109375 -0.359375 Z M 13.921875 -17.5625 C 14.140625 -17.5625 14.25 -17.453125 14.25 -17.234375 C 14.25 -16.992188 14.140625 -16.875 13.921875 -16.875 L 7.40625 -16.875 L 7.40625 -13.28125 L 11.90625 -13.28125 C 12.144531 -13.28125 12.265625 -13.160156 12.265625 -12.921875 C 12.265625 -12.679688 12.144531 -12.5625 11.90625 -12.5625 L 7.078125 -12.5625 C 6.835938 -12.5625 6.71875 -12.679688 6.71875 -12.921875 L 6.71875 -17.234375 C 6.71875 -17.453125 6.835938 -17.5625 7.078125 -17.5625 Z M 11.90625 -8.984375 C 12.144531 -8.984375 12.265625 -8.859375 12.265625 -8.609375 C 12.265625 -8.390625 12.144531 -8.28125 11.90625 -8.28125 L 7.40625 -8.28125 L 7.40625 -4.671875 L 13.921875 -4.671875 C 14.140625 -4.671875 14.25 -4.550781 14.25 -4.3125 C 14.25 -4.082031 14.140625 -3.96875 13.921875 -3.96875 L 7.078125 -3.96875 C 6.835938 -3.96875 6.71875 -4.082031 6.71875 -4.3125 L 6.71875 -8.609375 C 6.71875 -8.859375 6.835938 -8.984375 7.078125 -8.984375 Z M 11.90625 -8.984375 "/></g></g><g style="fill:#1e5175;fill-opacity:1;"><g transform="translate(264.124901, 24.761037)"><path style="stroke:none" d="M 3.109375 0 C 3.109375 0.238281 2.984375 0.359375 2.734375 0.359375 C 2.515625 0.359375 2.40625 0.238281 2.40625 0 L 2.40625 -21.546875 C 2.40625 -21.785156 2.515625 -21.90625 2.734375 -21.90625 L 11.203125 -21.90625 C 12.472656 -21.90625 13.613281 -21.59375 14.625 -20.96875 C 15.632812 -20.34375 16.441406 -19.515625 17.046875 -18.484375 C 17.648438 -17.453125 17.953125 -16.3125 17.953125 -15.0625 C 17.953125 -13.914062 17.691406 -12.847656 17.171875 -11.859375 C 16.648438 -10.878906 15.929688 -10.066406 15.015625 -9.421875 C 14.097656 -8.785156 13.066406 -8.40625 11.921875 -8.28125 L 18.171875 -0.203125 C 18.304688 -0.0234375 18.285156 0.117188 18.109375 0.234375 C 17.941406 0.398438 17.769531 0.382812 17.59375 0.1875 L 10.96875 -8.375 C 10.90625 -8.4375 10.875 -8.515625 10.875 -8.609375 C 10.875 -8.859375 10.984375 -8.984375 11.203125 -8.984375 C 12.328125 -8.984375 13.347656 -9.257812 14.265625 -9.8125 C 15.179688 -10.363281 15.90625 -11.097656 16.4375 -12.015625 C 16.96875 -12.941406 17.234375 -13.957031 17.234375 -15.0625 C 17.234375 -16.1875 16.96875 -17.207031 16.4375 -18.125 C 15.90625 -19.050781 15.179688 -19.789062 14.265625 -20.34375 C 13.347656 -20.894531 12.328125 -21.171875 11.203125 -21.171875 L 3.109375 -21.171875 Z M 9.640625 -12.59375 C 9.398438 -12.59375 9.28125 -12.703125 9.28125 -12.921875 C 9.28125 -13.140625 9.398438 -13.25 9.640625 -13.25 L 10.84375 -13.25 C 11.363281 -13.25 11.804688 -13.425781 12.171875 -13.78125 C 12.535156 -14.132812 12.71875 -14.5625 12.71875 -15.0625 C 12.71875 -15.582031 12.535156 -16.015625 12.171875 -16.359375 C 11.804688 -16.703125 11.363281 -16.875 10.84375 -16.875 L 7.046875 -16.875 C 6.828125 -16.875 6.71875 -16.988281 6.71875 -17.21875 C 6.71875 -17.445312 6.828125 -17.5625 7.046875 -17.5625 L 10.84375 -17.5625 C 11.550781 -17.5625 12.15625 -17.320312 12.65625 -16.84375 C 13.15625 -16.375 13.40625 -15.78125 13.40625 -15.0625 C 13.40625 -14.363281 13.15625 -13.773438 12.65625 -13.296875 C 12.15625 -12.828125 11.550781 -12.59375 10.84375 -12.59375 Z M 12.921875 -0.203125 C 13.066406 -0.0234375 13.046875 0.128906 12.859375 0.265625 C 12.660156 0.429688 12.488281 0.40625 12.34375 0.1875 L 7.40625 -6.453125 L 7.40625 0 C 7.40625 0.0820312 7.367188 0.160156 7.296875 0.234375 C 7.234375 0.316406 7.148438 0.359375 7.046875 0.359375 C 6.828125 0.359375 6.71875 0.238281 6.71875 0 L 6.71875 -7.46875 C 6.695312 -7.570312 6.738281 -7.671875 6.84375 -7.765625 C 7.019531 -7.890625 7.179688 -7.863281 7.328125 -7.6875 Z M 12.921875 -0.203125 "/></g></g><g style="fill:#1e5175;fill-opacity:1;"><g transform="translate(55.335553, 37.148417)"><path style="stroke:none" d="M 5.71875 -6.140625 L 5.71875 0 L 5.015625 0 L 5.015625 -2.734375 L 1.453125 -2.734375 L 1.453125 0 L 0.75 0 L 0.75 -6.140625 L 1.453125 -6.140625 L 1.453125 -3.421875 L 5.015625 -3.421875 L 5.015625 -6.140625 Z M 5.71875 -6.140625 "/></g></g><g style="fill:#1e5175;fill-opacity:1;"><g transform="translate(67.038263, 37.148417)"><path style="stroke:none" d="M 5.109375 -5.46875 L 2.96875 -5.46875 L 2.96875 0 L 2.28125 0 L 2.28125 -5.46875 L 0.125 -5.46875 L 0.125 -6.140625 L 5.109375 -6.140625 Z M 5.109375 -5.46875 "/></g></g><g style="fill:#1e5175;fill-opacity:1;"><g transform="translate(77.515624, 37.148417)"><path style="stroke:none" d="M 5.109375 -5.46875 L 2.96875 -5.46875 L 2.96875 0 L 2.28125 0 L 2.28125 -5.46875 L 0.125 -5.46875 L 0.125 -6.140625 L 5.109375 -6.140625 Z M 5.109375 -5.46875 "/></g></g><g style="fill:#1e5175;fill-opacity:1;"><g transform="translate(87.992984, 37.148417)"><path style="stroke:none" d="M 1.453125 0 L 0.75 0 L 0.75 -6.140625 L 3.515625 -6.140625 C 4.160156 -6.140625 4.675781 -5.960938 5.0625 -5.609375 C 5.445312 -5.242188 5.640625 -4.765625 5.640625 -4.171875 C 5.640625 -3.554688 5.445312 -3.070312 5.0625 -2.71875 C 4.675781 -2.363281 4.160156 -2.1875 3.515625 -2.1875 L 1.453125 -2.1875 Z M 1.453125 -5.484375 L 1.453125 -2.84375 L 3.46875 -2.84375 C 3.945312 -2.84375 4.3125 -2.957031 4.5625 -3.1875 C 4.8125 -3.425781 4.9375 -3.75 4.9375 -4.15625 C 4.9375 -4.570312 4.8125 -4.894531 4.5625 -5.125 C 4.3125 -5.363281 3.945312 -5.484375 3.46875 -5.484375 Z M 1.453125 -5.484375 "/></g></g><g style="fill:#1e5175;fill-opacity:1;"><g transform="translate(99.055164, 37.148417)"><path style="stroke:none" d=""/></g></g><g style="fill:#1e5175;fill-opacity:1;"><g transform="translate(106.264931, 37.148417)"><path style="stroke:none" d="M 1.296875 -4.640625 L 1.296875 -3.921875 C 1.460938 -4.140625 1.664062 -4.328125 1.90625 -4.484375 C 2.15625 -4.640625 2.429688 -4.71875 2.734375 -4.71875 C 3.046875 -4.71875 3.3125 -4.671875 3.53125 -4.578125 C 3.757812 -4.492188 3.957031 -4.363281 4.125 -4.1875 C 4.507812 -3.8125 4.703125 -3.316406 4.703125 -2.703125 L 4.703125 0 L 4 0 L 4 -2.6875 C 4 -3.113281 3.878906 -3.453125 3.640625 -3.703125 C 3.398438 -3.953125 3.085938 -4.078125 2.703125 -4.078125 C 2.304688 -4.078125 1.972656 -3.945312 1.703125 -3.6875 C 1.429688 -3.425781 1.296875 -3.085938 1.296875 -2.671875 L 1.296875 0 L 0.609375 0 L 0.609375 -4.640625 Z M 1.296875 -4.640625 "/></g></g><g style="fill:#1e5175;fill-opacity:1;"><g transform="translate(116.751569, 37.148417)"><path style="stroke:none" d="M 2.671875 -0.5625 C 3.296875 -0.5625 3.742188 -0.820312 4.015625 -1.34375 L 4.78125 -1.34375 C 4.613281 -0.914062 4.351562 -0.570312 4 -0.3125 C 3.65625 -0.0507812 3.207031 0.078125 2.65625 0.078125 C 1.957031 0.078125 1.390625 -0.15625 0.953125 -0.625 C 0.523438 -1.070312 0.3125 -1.632812 0.3125 -2.3125 C 0.3125 -3 0.515625 -3.566406 0.921875 -4.015625 C 1.359375 -4.484375 1.925781 -4.71875 2.625 -4.71875 C 3.3125 -4.71875 3.875 -4.484375 4.3125 -4.015625 C 4.71875 -3.566406 4.921875 -3 4.921875 -2.3125 L 4.921875 -2.046875 L 1.03125 -2.046875 C 1.082031 -1.617188 1.253906 -1.265625 1.546875 -0.984375 C 1.835938 -0.703125 2.210938 -0.5625 2.671875 -0.5625 Z M 2.625 -4.078125 C 2.195312 -4.078125 1.835938 -3.945312 1.546875 -3.6875 C 1.265625 -3.425781 1.097656 -3.09375 1.046875 -2.6875 L 4.1875 -2.6875 C 4.132812 -3.09375 3.96875 -3.425781 3.6875 -3.6875 C 3.394531 -3.945312 3.039062 -4.078125 2.625 -4.078125 Z M 2.625 -4.078125 "/></g></g><g style="fill:#1e5175;fill-opacity:1;"><g transform="translate(127.09893, 37.148417)"><path style="stroke:none" d="M 1.109375 0 L 1.109375 -4.03125 L 0.15625 -4.03125 L 0.15625 -4.640625 L 1.109375 -4.640625 L 1.109375 -6.296875 L 1.796875 -6.296875 L 1.796875 -4.640625 L 2.875 -4.640625 L 2.875 -4.03125 L 1.796875 -4.03125 L 1.796875 0 Z M 1.109375 0 "/></g></g><g style="fill:#1e5175;fill-opacity:1;"><g transform="translate(135.357669, 37.148417)"><path style="stroke:none" d="M 3.5 -3.703125 L 2.34375 0 L 1.546875 0 L 0.078125 -4.640625 L 0.828125 -4.640625 L 1.9375 -0.859375 L 3.125 -4.640625 L 3.875 -4.640625 L 5.0625 -0.859375 L 6.171875 -4.640625 L 6.921875 -4.640625 L 5.453125 0 L 4.65625 0 Z M 3.5 -3.703125 "/></g></g><g style="fill:#1e5175;fill-opacity:1;"><g transform="translate(147.552342, 37.148417)"><path style="stroke:none" d="M 2.625 -4.71875 C 3.3125 -4.71875 3.875 -4.484375 4.3125 -4.015625 C 4.71875 -3.566406 4.921875 -3 4.921875 -2.3125 C 4.921875 -1.632812 4.71875 -1.070312 4.3125 -0.625 C 3.875 -0.15625 3.3125 0.078125 2.625 0.078125 C 1.925781 0.078125 1.359375 -0.15625 0.921875 -0.625 C 0.515625 -1.070312 0.3125 -1.632812 0.3125 -2.3125 C 0.3125 -3 0.515625 -3.566406 0.921875 -4.015625 C 1.359375 -4.484375 1.925781 -4.71875 2.625 -4.71875 Z M 2.625 -0.5625 C 3.125 -0.5625 3.519531 -0.734375 3.8125 -1.078125 C 4.082031 -1.398438 4.21875 -1.8125 4.21875 -2.3125 C 4.21875 -2.820312 4.082031 -3.238281 3.8125 -3.5625 C 3.519531 -3.90625 3.125 -4.078125 2.625 -4.078125 C 2.113281 -4.078125 1.710938 -3.90625 1.421875 -3.5625 C 1.148438 -3.238281 1.015625 -2.820312 1.015625 -2.3125 C 1.015625 -1.8125 1.148438 -1.398438 1.421875 -1.078125 C 1.710938 -0.734375 2.113281 -0.5625 2.625 -0.5625 Z M 2.625 -0.5625 "/></g></g><g style="fill:#1e5175;fill-opacity:1;"><g transform="translate(158.020414, 37.148417)"><path style="stroke:none" d="M 3.046875 -4.71875 L 3.046875 -4.015625 L 2.96875 -4.015625 C 2.46875 -4.015625 2.0625 -3.816406 1.75 -3.421875 C 1.445312 -3.035156 1.296875 -2.578125 1.296875 -2.046875 L 1.296875 0 L 0.609375 0 L 0.609375 -4.640625 L 1.296875 -4.640625 L 1.296875 -3.5 C 1.441406 -3.976562 1.765625 -4.332031 2.265625 -4.5625 C 2.472656 -4.664062 2.71875 -4.71875 3 -4.71875 Z M 3.046875 -4.71875 "/></g></g><g style="fill:#1e5175;fill-opacity:1;"><g transform="translate(166.45553, 37.148417)"><path style="stroke:none" d="M 2.640625 -2.8125 L 4.65625 0 L 3.796875 0 L 2.171875 -2.328125 L 1.296875 -1.46875 L 1.296875 0 L 0.609375 0 L 0.609375 -6.5 L 1.296875 -6.5 L 1.296875 -2.34375 L 3.53125 -4.640625 L 4.515625 -4.640625 Z M 2.640625 -2.8125 "/></g></g><g style="fill:#1e5175;fill-opacity:1;"><g transform="translate(176.34806, 37.148417)"><path style="stroke:none" d="M 0.609375 -4.640625 L 1.296875 -4.640625 L 1.296875 0 L 0.609375 0 Z M 1.328125 -6.328125 L 1.328125 -5.421875 L 0.578125 -5.421875 L 0.578125 -6.328125 Z M 1.328125 -6.328125 "/></g></g><g style="fill:#1e5175;fill-opacity:1;"><g transform="translate(183.48356, 37.148417)"><path style="stroke:none" d="M 1.296875 -4.640625 L 1.296875 -3.921875 C 1.460938 -4.140625 1.664062 -4.328125 1.90625 -4.484375 C 2.15625 -4.640625 2.429688 -4.71875 2.734375 -4.71875 C 3.046875 -4.71875 3.3125 -4.671875 3.53125 -4.578125 C 3.757812 -4.492188 3.957031 -4.363281 4.125 -4.1875 C 4.507812 -3.8125 4.703125 -3.316406 4.703125 -2.703125 L 4.703125 0 L 4 0 L 4 -2.6875 C 4 -3.113281 3.878906 -3.453125 3.640625 -3.703125 C 3.398438 -3.953125 3.085938 -4.078125 2.703125 -4.078125 C 2.304688 -4.078125 1.972656 -3.945312 1.703125 -3.6875 C 1.429688 -3.425781 1.296875 -3.085938 1.296875 -2.671875 L 1.296875 0 L 0.609375 0 L 0.609375 -4.640625 Z M 1.296875 -4.640625 "/></g></g><g style="fill:#1e5175;fill-opacity:1;"><g transform="translate(193.970198, 37.148417)"><path style="stroke:none" d="M 4.21875 -3.890625 L 4.21875 -4.640625 L 4.921875 -4.640625 L 4.921875 -0.140625 C 4.921875 0.523438 4.726562 1.03125 4.34375 1.375 C 3.96875 1.726562 3.457031 1.90625 2.8125 1.90625 C 2.164062 1.90625 1.660156 1.78125 1.296875 1.53125 C 0.941406 1.289062 0.695312 0.96875 0.5625 0.5625 L 1.34375 0.5625 C 1.539062 1.039062 1.988281 1.28125 2.6875 1.28125 C 3.226562 1.28125 3.617188 1.15625 3.859375 0.90625 C 4.097656 0.65625 4.21875 0.289062 4.21875 -0.1875 L 4.21875 -0.828125 C 3.84375 -0.273438 3.289062 0 2.5625 0 C 1.894531 0 1.347656 -0.226562 0.921875 -0.6875 C 0.515625 -1.132812 0.3125 -1.691406 0.3125 -2.359375 C 0.3125 -3.023438 0.515625 -3.582031 0.921875 -4.03125 C 1.347656 -4.488281 1.910156 -4.71875 2.609375 -4.71875 C 3.316406 -4.71875 3.851562 -4.441406 4.21875 -3.890625 Z M 2.65625 -0.625 C 2.90625 -0.625 3.128906 -0.671875 3.328125 -0.765625 C 3.523438 -0.859375 3.695312 -0.976562 3.84375 -1.125 C 4.125 -1.445312 4.265625 -1.859375 4.265625 -2.359375 C 4.265625 -2.847656 4.125 -3.253906 3.84375 -3.578125 C 3.539062 -3.910156 3.144531 -4.078125 2.65625 -4.078125 C 2.15625 -4.078125 1.753906 -3.910156 1.453125 -3.578125 C 1.160156 -3.253906 1.015625 -2.847656 1.015625 -2.359375 C 1.015625 -1.867188 1.160156 -1.457031 1.453125 -1.125 C 1.753906 -0.789062 2.15625 -0.625 2.65625 -0.625 Z M 2.65625 -0.625 "/></g></g><g style="fill:#1e5175;fill-opacity:1;"><g transform="translate(204.726046, 37.148417)"><path style="stroke:none" d=""/></g></g><g style="fill:#1e5175;fill-opacity:1;"><g transform="translate(211.935813, 37.148417)"><path style="stroke:none" d="M 1.296875 0 L 0.609375 0 L 0.609375 -6.5 L 1.296875 -6.5 Z M 1.296875 0 "/></g></g><g style="fill:#1e5175;fill-opacity:1;"><g transform="translate(219.071313, 37.148417)"><path style="stroke:none" d="M 0.609375 -4.640625 L 1.296875 -4.640625 L 1.296875 0 L 0.609375 0 Z M 1.328125 -6.328125 L 1.328125 -5.421875 L 0.578125 -5.421875 L 0.578125 -6.328125 Z M 1.328125 -6.328125 "/></g></g><g style="fill:#1e5175;fill-opacity:1;"><g transform="translate(226.206813, 37.148417)"><path style="stroke:none" d="M 1.296875 -3.890625 C 1.671875 -4.441406 2.222656 -4.71875 2.953125 -4.71875 C 3.628906 -4.71875 4.171875 -4.484375 4.578125 -4.015625 C 4.992188 -3.554688 5.203125 -2.988281 5.203125 -2.3125 C 5.203125 -1.644531 4.992188 -1.082031 4.578125 -0.625 C 4.171875 -0.15625 3.613281 0.078125 2.90625 0.078125 C 2.207031 0.078125 1.671875 -0.195312 1.296875 -0.75 L 1.296875 0 L 0.609375 0 L 0.609375 -6.5 L 1.296875 -6.5 Z M 2.875 -0.5625 C 3.363281 -0.5625 3.765625 -0.734375 4.078125 -1.078125 C 4.367188 -1.398438 4.515625 -1.8125 4.515625 -2.3125 C 4.515625 -2.820312 4.367188 -3.238281 4.078125 -3.5625 C 3.765625 -3.90625 3.363281 -4.078125 2.875 -4.078125 C 2.363281 -4.078125 1.96875 -3.90625 1.6875 -3.5625 C 1.40625 -3.238281 1.265625 -2.820312 1.265625 -2.3125 C 1.265625 -1.8125 1.40625 -1.398438 1.6875 -1.078125 C 1.96875 -0.734375 2.363281 -0.5625 2.875 -0.5625 Z M 2.875 -0.5625 "/></g></g><g style="fill:#1e5175;fill-opacity:1;"><g transform="translate(236.953372, 37.148417)"><path style="stroke:none" d="M 3.046875 -4.71875 L 3.046875 -4.015625 L 2.96875 -4.015625 C 2.46875 -4.015625 2.0625 -3.816406 1.75 -3.421875 C 1.445312 -3.035156 1.296875 -2.578125 1.296875 -2.046875 L 1.296875 0 L 0.609375 0 L 0.609375 -4.640625 L 1.296875 -4.640625 L 1.296875 -3.5 C 1.441406 -3.976562 1.765625 -4.332031 2.265625 -4.5625 C 2.472656 -4.664062 2.71875 -4.71875 3 -4.71875 Z M 3.046875 -4.71875 "/></g></g><g style="fill:#1e5175;fill-opacity:1;"><g transform="translate(245.267744, 37.148417)"><path style="stroke:none" d="M 4.21875 -0.75 C 3.851562 -0.195312 3.300781 0.078125 2.5625 0.078125 C 1.894531 0.078125 1.347656 -0.15625 0.921875 -0.625 C 0.515625 -1.082031 0.3125 -1.644531 0.3125 -2.3125 C 0.3125 -2.988281 0.515625 -3.554688 0.921875 -4.015625 C 1.347656 -4.484375 1.910156 -4.71875 2.609375 -4.71875 C 3.304688 -4.71875 3.84375 -4.441406 4.21875 -3.890625 L 4.21875 -4.640625 L 4.921875 -4.640625 L 4.921875 0 L 4.21875 0 Z M 2.65625 -0.5625 C 3.15625 -0.5625 3.550781 -0.734375 3.84375 -1.078125 C 4.125 -1.398438 4.265625 -1.8125 4.265625 -2.3125 C 4.265625 -2.820312 4.125 -3.238281 3.84375 -3.5625 C 3.550781 -3.90625 3.15625 -4.078125 2.65625 -4.078125 C 2.15625 -4.078125 1.753906 -3.90625 1.453125 -3.5625 C 1.160156 -3.238281 1.015625 -2.820312 1.015625 -2.3125 C 1.015625 -1.8125 1.160156 -1.398438 1.453125 -1.078125 C 1.753906 -0.734375 2.15625 -0.5625 2.65625 -0.5625 Z M 2.65625 -0.5625 "/></g></g><g style="fill:#1e5175;fill-opacity:1;"><g transform="translate(256.023569, 37.148417)"><path style="stroke:none" d="M 3.046875 -4.71875 L 3.046875 -4.015625 L 2.96875 -4.015625 C 2.46875 -4.015625 2.0625 -3.816406 1.75 -3.421875 C 1.445312 -3.035156 1.296875 -2.578125 1.296875 -2.046875 L 1.296875 0 L 0.609375 0 L 0.609375 -4.640625 L 1.296875 -4.640625 L 1.296875 -3.5 C 1.441406 -3.976562 1.765625 -4.332031 2.265625 -4.5625 C 2.472656 -4.664062 2.71875 -4.71875 3 -4.71875 Z M 3.046875 -4.71875 "/></g></g><g style="fill:#1e5175;fill-opacity:1;"><g transform="translate(264.458696, 37.148417)"><path style="stroke:none" d="M 1.84375 1.84375 L 1.078125 1.84375 L 1.9375 -0.0625 L 0.03125 -4.640625 L 0.8125 -4.640625 L 2.296875 -0.828125 L 3.828125 -4.640625 L 4.578125 -4.640625 Z M 1.84375 1.84375 "/></g></g></g></svg>